<svg height="512" viewBox="0 0 47.99998 48" width="512" xmlns="http://www.w3.org/2000/svg"><g id="promotions"><path d="m11.93065 10.33057a2.7614 2.7614 0 0 0 -.00008-5.52246 2.7614 2.7614 0 0 0 .00008 5.52246zm0-3.52247a.76137.76137 0 0 1 0 1.52246.76137.76137 0 0 1 0-1.52246z"/><path d="m16.93944 16.02881a5.0086 5.0086 0 0 0 -10.01709 0v1.20605h10.01709zm-7.90967-.794a3.02747 3.02747 0 0 1 5.80225 0z"/><path d="m24.02245 17.34521a2.76189 2.76189 0 0 0 -.00009-5.52343 2.76189 2.76189 0 0 0 .00009 5.52343zm0-3.52343a.76187.76187 0 0 1 0 1.52343.76187.76187 0 0 1 0-1.52343z"/><path d="m29 24.17627c.62745-7.93227-10.63218-7.95164-10 .01562.53739-.00321 9.76465.01124 10-.01562zm-7.833-1.98438a3.01982 3.01982 0 0 1 5.666 0z"/><path d="m36.05175 26.53857a2.76189 2.76189 0 0 0 -.00009-5.52343 2.76189 2.76189 0 0 0 .00009 5.52343zm0-3.52343a.76186.76186 0 0 1 -.00005 1.52343.76186.76186 0 0 1 .00005-1.52343z"/><path d="m40.9995 32.23584c-.47122-7.2356-10.69132-6.26006-9.96826 1h9.96826zm-7.7959-1a2.99756 2.99756 0 0 1 5.62354 0z"/><path d="m39 41.19189v-6h-6v6h-6v-15.0664h-6v15.0664h-6v-22h-6v22h-3v2h36v-2zm-28 0v-20h2v20zm12 0v-13.0664h2v13.0664zm12 0v-4h2v4z"/></g></svg>