<svg height="512" viewBox="0 0 47.99998 48" width="512" xmlns="http://www.w3.org/2000/svg" xmlns:xlink="http://www.w3.org/1999/xlink"><linearGradient id="linear-gradient" gradientUnits="userSpaceOnUse" x1="24" x2="24" y1="43.192" y2="4.808"><stop offset="0" stop-color="#f326f9"/><stop offset="1" stop-color="#23d1df"/></linearGradient><g id="promotions"><path d="m16.93945 17.23486h-10.01709v-1.20605a5.0086 5.0086 0 0 1 10.01709 0zm22.06055 23.95703v-6h-6v6h-6v-15.0664h-6v15.0664h-6v-22h-6v22h-3v2h36v-2zm-2.94824-14.65332a2.76189 2.76189 0 0 0 -.00006-5.52343 2.76189 2.76189 0 0 0 .00006 5.52343zm4.94775 6.69727v-1c-.47119-7.2356-10.69134-6.26007-9.96826 1zm-16.97705-15.89063a2.76189 2.76189 0 0 0 -.00006-5.52343 2.76189 2.76189 0 0 0 .00006 5.52343zm-12.0918-7.01464a2.7614 2.7614 0 0 0 -.00006-5.52246 2.7614 2.7614 0 0 0 .00006 5.52246zm17.06934 13.8457c.62744-7.93231-10.6322-7.95166-10 .01562.53741-.00323 9.76465.01123 10-.01562z" fill="url(#linear-gradient)"/></g></svg>