<svg height="512pt" viewBox="0 -17 512.001 512" width="512pt" xmlns="http://www.w3.org/2000/svg"><path d="m491.714844 0c-8.832032 0-193.027344 0-201.917969 0-11.1875 0-20.285156 9.101562-20.285156 20.285156v13.648438c0 11.183594 9.101562 20.285156 20.285156 20.285156h201.917969c11.1875 0 20.285156-9.101562 20.285156-20.285156v-13.644532c0-11.1875-9.101562-20.289062-20.285156-20.289062zm-201.917969 39.21875c-2.914063 0-5.285156-2.371094-5.285156-5.285156v-13.644532c0-2.914062 2.371093-5.285156 5.285156-5.285156h93.457031v24.214844zm207.203125-5.285156c0 2.914062-2.371094 5.285156-5.285156 5.285156h-93.457032v-24.21875h93.457032c2.914062 0 5.285156 2.371094 5.285156 5.285156zm0 0"/><path d="m491.714844 169.445312c-8.832032 0-193.027344 0-201.917969 0-11.1875 0-20.285156 9.101563-20.285156 20.285157v13.644531c0 11.1875 9.101562 20.289062 20.285156 20.289062h201.917969c11.1875 0 20.285156-9.101562 20.285156-20.289062v-13.644531c0-11.183594-9.101562-20.285157-20.285156-20.285157zm-201.917969 39.214844c-2.914063 0-5.285156-2.371094-5.285156-5.285156v-13.644531c0-2.914063 2.371093-5.285157 5.285156-5.285157h93.457031v24.214844zm207.203125-5.285156c0 2.914062-2.371094 5.289062-5.285156 5.289062h-93.457032v-24.21875h93.457032c2.914062 0 5.285156 2.371094 5.285156 5.285157zm0 0"/><path d="m491.714844 84.722656c-10.582032 0-191.121094 0-201.917969 0-9.785156 0-17.976563 6.96875-19.871094 16.203125-.273437 1.320313-.414062 2.6875-.414062 4.085938v13.644531c0 9.085938 6.007812 16.796875 14.261719 19.371094 1.902343.59375 3.925781.914062 6.023437.914062h83.457031c4.144532 0 7.503906-3.359375 7.503906-7.5 0-4.144531-3.359374-7.5-7.503906-7.5h-83.457031c-2.914063 0-5.285156-2.371094-5.285156-5.285156v-13.644531c0-2.917969 2.371093-5.289063 5.285156-5.289063h147.625v24.21875h-29.164063c-4.144531 0-7.5 3.355469-7.5 7.5 0 4.140625 3.355469 7.5 7.5 7.5h83.457032c11.1875 0 20.285156-9.101562 20.285156-20.285156v-13.644531c0-11.1875-9.101562-20.289063-20.285156-20.289063zm5.285156 33.929688c0 2.914062-2.371094 5.285156-5.285156 5.285156h-39.292969v-24.214844h39.292969c2.914062 0 5.285156 2.371094 5.285156 5.285156zm0 0"/><path d="m18.332031 477.382812h285.453125c10.109375 0 18.332032-8.222656 18.332032-18.332031v-65.414062c0-4.140625-3.359376-7.5-7.5-7.5-4.144532 0-7.5 3.359375-7.5 7.5v65.414062c0 1.835938-1.496094 3.332031-3.332032 3.332031h-36.988281v-136.957031c0-4.144531-3.355469-7.5-7.5-7.5-4.140625 0-7.5 3.355469-7.5 7.5v136.957031h-73.828125l21.109375-23.222656c2.5-2.746094 3.675781-6.660156 3.148437-10.460937-.011718-.074219-.019531-.148438-.035156-.222657l-20.824218-123.039062 5.210937-7.839844c2.558594 1.820313 6.53125 5.335938 12.945313 3.734375 3.617187-.902343 6.644531-3.332031 8.308593-6.667969h.003907l21.789062-43.675781 49.671875 19.238281c1.839844.792969 27.820313 12.542969 27.820313 43.464844v44.945313c0 4.140625 3.355468 7.5 7.5 7.5 4.140624 0 7.5-3.359375 7.5-7.5v-44.945313c0-41.601562-35.636719-56.730468-37.152344-57.355468-.046875-.019532-.09375-.039063-.144532-.054688l-83.089843-32.179688v-18.953124c13.140625-10.300782 22.28125-25.464844 24.6875-42.765626 16.125-1.347656 28.089843-14.523437 28.089843-30.179687 0-7.230469-2.585937-14.144531-7.199218-19.550781v-25.648438c0-47.972656-39.027344-87.003906-87-87.003906s-87 39.03125-87 87.003906v26.324219c-4.664063 5.351563-7.195313 11.914063-7.195313 18.875 0 15.585937 11.882813 28.835937 28.105469 30.179687 2.429688 16.820313 11.519531 33.046876 26.074219 43.820313v17.902344l-82.996094 32.175781c-.046875.019531-.09375.039062-.144531.058594-1.515625.621094-37.152344 15.75-37.152344 57.351562v145.359375c0 10.109375 8.222656 18.332031 18.332031 18.332031zm142.703125-18.671874-26.1875-28.804688 20.082032-118.644531h12.207031l20.082031 118.644531zm-34.554687-173.109376-19.984375-40.054687 18.921875-7.328125 24.753906 30.554688c-11.09375 7.878906-22.332031 15.863281-23.691406 16.828124zm42.972656 10.660157h-16.839844l-4.882812-7.351563 13.304687-9.449218 13.304688 9.445312zm46.121094-50.710938-19.984375 40.050781c-.316406-.226562-7.863282-5.585937-23.714844-16.847656l24.746094-30.546875zm11.488281-98.398437v-29.875c7.617188 1.527344 12.441406 7.9375 12.441406 14.925781 0 7.148437-4.96875 13.453125-12.441406 14.949219zm-138.753906-60.152344c0-39.699219 32.300781-72 72-72 39.699218 0 72 32.300781 72 72v16.082031c-1.703125-.476562-3.457032-.804687-5.246094-.992187v-.195313c0-3.566406-.4375-5.148437-4.394531-9.714843-2.875-3.320313-7.179688-7.753907-17.714844-19.078126-4.296875-4.613281-11.246094-5.464843-16.519531-2.015624-24.214844 15.820312-53.757813 23.769531-81 21.8125-6.152344-.46875-11.734375 3.511718-13.390625 9.390624-1.605469.199219-3.808594.648438-5.734375 1.257813zm-7.195313 45.203125c0-7.039063 5.730469-12.742187 12.445313-14.554687v29.503906c-7.460938-1.492188-12.445313-7.78125-12.445313-14.949219zm27.449219 21.070313c0-33.808594 0-35.136719 0-45.273438 29.304688 1.585938 60.628906-6.878906 86.597656-23.398438 9.363282 10.046876 15.058594 15.992188 16.898438 18.210938v50.460938c0 28.160156-22.976563 50.902343-50.902344 50.902343-31.355469 0-52.59375-24.277343-52.59375-50.902343zm78.167969 60.738281v12.570312l-25.695313 31.71875-25.742187-31.773437v-12.054688c15.179687 5.90625 34.300781 6.777344 51.4375-.460937zm-171.730469 99.679687c0-31.046875 26.195312-42.769531 27.8125-43.460937l49.632812-19.242188 21.792969 43.675781c1.664063 3.332032 4.691407 5.761719 8.304688 6.667969 6.339843 1.585938 10.324219-1.867187 12.953125-3.734375l5.207031 7.839844-20.824219 123.039062c-.011718.074219-.023437.152344-.035156.226563-.523438 3.804687.652344 7.714844 3.148438 10.460937l21.109374 23.21875h-73.78125v-136.957031c0-4.144531-3.355468-7.5-7.5-7.5-4.144531 0-7.5 3.355469-7.5 7.5v136.957031h-36.988281c-1.835937 0-3.332031-1.496093-3.332031-3.332031zm0 0"/></svg>