<svg height="512" viewBox="0 0 64 64" width="512" xmlns="http://www.w3.org/2000/svg"><g id="Skills-Recruitment-Prize-Selection-Business"><path d="m39.59 20.38-.19-.11a9.451 9.451 0 0 0 -4.4-1.26v-1.82a6.044 6.044 0 0 0 2.65-3.19h.35a3 3 0 0 0 2.84-3.97 3.056 3.056 0 0 0 -2.84-2.02v-.01a6 6 0 0 0 -12 0v.01a3.061 3.061 0 0 0 -2.84 2.01 3 3 0 0 0 2.84 3.98h.35a6.044 6.044 0 0 0 2.65 3.19v1.81a9.084 9.084 0 0 0 -4.29 1.21l-.21.12a7.038 7.038 0 0 0 -3.5 6.07v10.6a3.009 3.009 0 0 0 3 3h1v17.03a4.952 4.952 0 0 0 -2 3.97 1 1 0 0 0 1 1h16a1 1 0 0 0 1-1 4.952 4.952 0 0 0 -2-3.97v-17.03h1a3.009 3.009 0 0 0 3-3v-10.7a6.874 6.874 0 0 0 -3.41-5.92zm-1.59-10.37a1.047 1.047 0 0 1 .94.65 1 1 0 0 1 -.12.92 1.028 1.028 0 0 1 -.82.42zm-12 1.99a1.028 1.028 0 0 1 -.82-.42 1.012 1.012 0 0 1 -.12-.93 1.055 1.055 0 0 1 .94-.64zm10.06 9.15-.5 1.27-1.67-1.25.35-.17h.42a7.315 7.315 0 0 1 1.4.15zm-4.06-17.15a4 4 0 0 1 4 4 2.006 2.006 0 0 1 -2-2 1 1 0 0 0 -2 0 2.006 2.006 0 0 1 -2 2h-2a4 4 0 0 1 4-4zm-4 8v-2h2a4 4 0 0 0 3-1.36 4 4 0 0 0 3 1.36v2a4 4 0 0 1 -8 0zm1.22 9h.54l.35.17-1.67 1.25-.51-1.29a7.054 7.054 0 0 1 1.29-.13zm-4.22 17h-1a1 1 0 0 1 -1-1v-1h2zm0-4h-2v-7.6a5.047 5.047 0 0 1 2.5-4.34l.21-.12c.1-.06.22-.1.33-.16l1.03 2.59a1 1 0 0 0 .66.59.842.842 0 0 0 .27.04 1.029 1.029 0 0 0 .6-.2l1.02-.77.36 1.08-.98 9.79a1 1 0 0 0 .17.65l1.63 2.45h-3.8v-11h-2zm.17 26a3 3 0 0 1 5.66 0zm5.83-2.97a4.924 4.924 0 0 0 -3-1.03 5.468 5.468 0 0 0 -1 .1v-16.1h4zm0-39.12a5.6 5.6 0 0 0 2 0v1.47l-1 .5-1-.5zm1.69 4.86-.41 1.23h-.56l-.41-1.23.69-.52zm-.69 13.43-.97-1.46.88-8.74h.18l.88 8.74zm1 3.8h4v16.1a5.468 5.468 0 0 0 -1-.1 4.924 4.924 0 0 0 -3 1.03zm.17 20a3 3 0 0 1 5.66 0zm7.83-23a1 1 0 0 1 -1 1h-1v-2h2zm0-3h-2v-7h-2v11h-3.8l1.63-2.45a1 1 0 0 0 .17-.65l-.98-9.79.36-1.08 1.02.77a1.029 1.029 0 0 0 .6.2.842.842 0 0 0 .27-.04 1 1 0 0 0 .66-.59l1.03-2.58a3.612 3.612 0 0 1 .44.22l.19.11a4.833 4.833 0 0 1 2.41 4.18z"/><path d="m50 6h8v2h-8z"/><path d="m50 10h8v2h-8z"/><path d="m43 16h16a3 3 0 0 0 3-3v-8a3 3 0 0 0 -3-3h-10a3 3 0 0 0 -3 3v5.586l-3.707 3.707a1 1 0 0 0 .707 1.707zm4.707-4.293a1 1 0 0 0 .293-.707v-6a1 1 0 0 1 1-1h10a1 1 0 0 1 1 1v8a1 1 0 0 1 -1 1h-13.586z"/><path d="m12 43a9 9 0 1 0 9 9 9.01 9.01 0 0 0 -9-9zm2.121 11.121a3 3 0 1 1 .879-2.121 2.98 2.98 0 0 1 -.88 2.122zm-3.121-9.05v2.029a5.006 5.006 0 0 0 -3.89 3.9h-2.031a7.011 7.011 0 0 1 5.921-5.929zm-5.92 7.929h2.02a5 5 0 0 0 7.657 3.172l.656.656.779.779a7 7 0 0 1 -11.112-4.607zm12.527 3.193-.779-.779-.656-.656a5 5 0 0 0 -3.172-7.658v-2.03a7 7 0 0 1 4.607 11.122z"/><path d="m11 15h2v-2h1v-2h-4v2h1z"/><path d="m11 2h2v2h-2z"/><path d="m4.636 4.636h2v2h-2z" transform="matrix(.707 -.707 .707 .707 -2.335 5.634)"/><path d="m2 11h2v2h-2z"/><path d="m20 11h2v2h-2z"/><path d="m17.364 4.636h2v2h-2z" transform="matrix(.707 -.707 .707 .707 1.394 14.636)"/><path d="m8.721 17h-1.721v2h2v1a3 3 0 0 0 6 0v-1h2v-2h-1.714a6 6 0 1 0 -6.565 0zm4.279 3a1 1 0 0 1 -2 0v-1h2zm-4.938-8.717a4.013 4.013 0 0 1 3.064-3.191 4.324 4.324 0 0 1 .883-.092 3.944 3.944 0 0 1 2.512.9 4 4 0 0 1 -.922 6.768 1 1 0 0 0 -.6.916v.416h-1.999v-.422a1 1 0 0 0 -.6-.916 4.019 4.019 0 0 1 -2.338-4.379z"/><path d="m62.07 57.43-3.3-5.7a6.566 6.566 0 0 0 .23-1.73 7 7 0 0 0 -14 0 6.566 6.566 0 0 0 .23 1.73l-3.3 5.7a1.026 1.026 0 0 0 .02 1.03 1.012 1.012 0 0 0 .91.47l2.94-.19 1.3 2.63a1.016 1.016 0 0 0 .87.56h.03a1 1 0 0 0 .87-.5l2.57-4.46a5.242 5.242 0 0 0 1.12 0l2.57 4.46a1 1 0 0 0 .87.5h.03a1.016 1.016 0 0 0 .87-.56l1.3-2.63 2.94.19a1.012 1.012 0 0 0 .91-.47 1.026 1.026 0 0 0 .02-1.03zm-14 1.38-.77-1.55a.994.994 0 0 0 -.96-.56l-1.74.11 1.64-2.84a6.986 6.986 0 0 0 3.16 2.52zm3.93-3.81a5 5 0 1 1 5-5 5 5 0 0 1 -5 5zm5.66 1.7a1 1 0 0 0 -.96.56l-.77 1.55-1.33-2.32a7.052 7.052 0 0 0 3.16-2.52l1.64 2.84z"/><path d="m52 46a4 4 0 1 0 4 4 4 4 0 0 0 -4-4zm0 6a2 2 0 1 1 2-2 2 2 0 0 1 -2 2z"/><path d="m19 29h-6v-4h-2v5a1 1 0 0 0 1 1h7z"/><path d="m53 25h-2v4h-6v2h7a1 1 0 0 0 1-1z"/><path d="m11 36v5h2v-4h6v-2h-7a1 1 0 0 0 -1 1z"/><path d="m53 41v-5a1 1 0 0 0 -1-1h-7v2h6v4z"/></g></svg>