<svg height="512pt" viewBox="0 -18 512.001 512" width="512pt" xmlns="http://www.w3.org/2000/svg"><path d="m157.421875 0c-45.234375 0-81.902344 36.667969-81.902344 81.902344v33.328125c5.476563-5.074219 14.292969-7.832031 21.894531-6.816407v-4.082031c0-3.242187 2.769532-5.804687 5.980469-5.5625 31.664063 2.273438 62.859375-7.785156 87.226563-23.703125 2.273437-1.488281 5.285156-1.117187 7.132812.867188 20.832032 22.394531 19.675782 21.527344 19.675782 24.449218v8.015626c8.332031-1.25 16.753906 1.324218 21.886718 6.097656v-32.59375c.003906-45.234375-36.664062-81.902344-81.894531-81.902344zm0 0" fill="#576574"/><path d="m105.414062 81.902344c0-40.128906 28.859376-73.488282 66.953126-80.515625-4.847657-.894531-9.839844-1.386719-14.945313-1.386719-45.234375 0-81.902344 36.667969-81.902344 81.902344v33.328125c5.476563-5.074219 14.292969-7.832031 21.894531-6.816407v-4.082031c0-3.242187 2.769532-5.804687 5.980469-5.5625.671875.050781 1.34375.082031 2.015625.121094v-16.988281zm0 0" fill="#3e4b5a"/><path d="m218.296875 105.171875v45.125c0 .488281-.027344.972656-.039063 1.460937 15.96875 2.417969 28.476563-9.121093 28.476563-23.292968 0-14.199219-12.515625-25.679688-28.4375-23.292969zm0 0" fill="#ffbeab"/><path d="m96.941406 150.597656v-45.734375c-14.09375-1.878906-28.832031 8.9375-28.832031 23.601563 0 14.347656 12.652344 26.066406 28.867187 23.613281-.011718-.492187-.035156-.984375-.035156-1.480469zm0 0" fill="#ffbeab"/><path d="m239.242188 111.277344c-5.164063-4.78125-12.582032-7.359375-20.945313-6.105469v45.125c0 .488281-.027344.972656-.039063 1.460937 8.390626 1.269532 15.820313-1.316406 20.984376-6.105468zm0 0" fill="#f7af9f"/><path d="m96.941406 146.152344c-4.90625-4.40625-7.882812-10.734375-7.882812-17.6875 0-6.753906 3.128906-12.691406 7.882812-16.949219v-6.648437c-14.09375-1.882813-28.832031 8.933593-28.832031 23.597656 0 14.347656 12.652344 26.070312 28.867187 23.613281-.011718-.492187-.035156-.984375-.035156-1.480469zm0 0" fill="#f7af9f"/><path d="m158.292969 208.277344c-13.230469 0-24.859375-3.632813-34.367188-9.707032v31.921876l34.21875 42.242187 34.222657-42.242187v-32.832032c-9.695313 6.6875-21.433594 10.617188-34.074219 10.617188zm0 0" fill="#ffbeab"/><path d="m154.832031 208.183594c-11.804687-.574219-22.238281-4.074219-30.90625-9.613282v31.921876l30.90625 38.148437zm0 0" fill="#f7af9f"/><path d="m282.898438 263.492188-90.53125-35.0625-34.222657 42.242187-34.222656-42.242187-90.4375 35.0625s-33.484375 13.765624-33.484375 51.9375v149.75c0 6.164062 4.996094 11.160156 11.15625 11.160156h294.070312c6.164063 0 11.160157-4.996094 11.160157-11.160156 0-27.902344 0-115.210938 0-149.75 0-38.171876-33.488281-51.9375-33.488281-51.9375zm0 0" fill="#e4eaf8"/><path d="m30.90625 465.179688c0-27.902344 0-128.601563 0-163.144532 0-26.058594 15.605469-40.738281 25.507812-47.433594l-22.929687 8.890626s-33.484375 13.765624-33.484375 51.9375v149.75c0 6.164062 4.996094 11.160156 11.15625 11.160156h30.910156c-6.164062 0-11.160156-4.996094-11.160156-11.160156zm0 0" fill="#d8dce5"/><path d="m199.464844 292.378906 25.59375-51.289062-32.691406-12.660156-34.222657 42.242187 33.367188 23.699219c2.699219 1.917968 6.472656.972656 7.953125-1.992188zm0 0" fill="#d8dce5"/><path d="m116.871094 292.378906-25.589844-51.289062 32.6875-12.660156 34.222656 42.242187-33.363281 23.699219c-2.699219 1.917968-6.476563.972656-7.957031-1.992188zm0 0" fill="#d8dce5"/><path d="m158.1875 270.703125v-.03125l-.019531.015625-.019531-.015625v.03125l-24.265626 17.234375 11.46875 17.265625h25.632813l11.472656-17.265625zm0 0" fill="#ee5253"/><path d="m161.101562 286.898438 9.945313-7.0625-12.855469-9.132813v-.03125l-.023437.015625-.019531-.015625v.03125l-24.265626 17.234375 11.46875 17.265625h25.636719l.058594-.09375-10.414063-15.679687c-.554687-.832032-.347656-1.953126.46875-2.53125zm0 0" fill="#d83941"/><path d="m192.949219 434.96875-21.964844-129.765625h-25.632813l-21.964843 129.765625c-.230469 1.671875.261719 3.371094 1.308593 4.523438l33.453126 36.800781v.046875l.019531-.023438.023437.023438v-.046875l33.453125-36.800781c1.046875-1.152344 1.535157-2.851563 1.304688-4.523438zm0 0" fill="#ff6b6b"/><path d="m150.449219 439.492188c-1.046875-1.152344-1.535157-2.851563-1.304688-4.523438l21.902344-129.410156-.0625-.355469h-25.632813l-21.964843 129.765625c-.230469 1.671875.257812 3.371094 1.308593 4.523438l33.453126 36.800781v.046875l.019531-.023438.019531.023438v-.046875l12.859375-14.144531zm0 0" fill="#ee5253"/><path d="m197.757812 72.84375c-1.851562-1.984375-4.863281-2.355469-7.136718-.871094-24.363282 15.917969-56.589844 25.980469-88.257813 23.707032-3.210937-.246094-5.980469 2.316406-5.980469 5.5625v48.929687c0 31.445313 24.640626 60.164063 61.910157 60.164063 33.175781 0 60.167969-26.988282 60.167969-60.164063v-52.878906c0-2.921875.125-2.058594-20.703126-24.449219zm0 0" fill="#ffcdbf"/><path d="m126.273438 150.171875v-55.019531c-7.914063.886718-15.929688 1.101562-23.910157.527344-3.210937-.246094-5.980469 2.316406-5.980469 5.5625v48.929687c0 31.445313 24.640626 60.164063 61.910157 60.164063 4.980469 0 9.816406-.617188 14.449219-1.761719-28.476563-6.679688-46.46875-31.539063-46.46875-58.402344zm0 0" fill="#ffbeab"/><path d="m267.125 476.339844v-147.789063c0-4.265625-3.460938-7.726562-7.726562-7.726562-4.269532 0-7.726563 3.457031-7.726563 7.726562v147.789063zm0 0" fill="#d8dce5"/><path d="m64.71875 476.339844v-147.789063c0-4.265625-3.460938-7.726562-7.730469-7.726562-4.265625 0-7.726562 3.457031-7.726562 7.726562v147.789063zm0 0" fill="#d8dce5"/><g fill="#e4eaf8"><path d="m498.828125 0h-208.011719c-7.273437 0-13.171875 5.898438-13.171875 13.171875v14.058594c0 7.273437 5.898438 13.171875 13.171875 13.171875h208.011719c7.273437 0 13.171875-5.898438 13.171875-13.171875v-14.058594c0-7.273437-5.898438-13.171875-13.171875-13.171875zm0 0"/><path d="m498.828125 87.28125h-208.011719c-7.273437 0-13.171875 5.894531-13.171875 13.171875v14.054687c0 7.277344 5.898438 13.171876 13.171875 13.171876h208.011719c7.273437 0 13.171875-5.894532 13.171875-13.171876v-14.054687c0-7.277344-5.898438-13.171875-13.171875-13.171875zm0 0"/><path d="m498.828125 174.558594h-208.011719c-7.273437 0-13.171875 5.898437-13.171875 13.171875v14.058593c0 7.273438 5.898438 13.171876 13.171875 13.171876h208.011719c7.273437 0 13.171875-5.898438 13.171875-13.171876v-14.058593c0-7.273438-5.898438-13.171875-13.171875-13.171875zm0 0"/></g><path d="m498.828125 14.496094h-208.011719c-5.140625 0-9.582031-2.953125-11.75-7.25-.902344 1.785156-1.421875 3.792968-1.421875 5.925781v14.058594c0 7.273437 5.898438 13.171875 13.171875 13.171875h208.011719c7.277344 0 13.171875-5.898438 13.171875-13.171875v-14.058594c0-2.132813-.519531-4.140625-1.417969-5.921875-2.171875 4.292969-6.613281 7.246094-11.753906 7.246094zm0 0" fill="#d8dce5"/><path d="m498.828125 101.773438h-208.011719c-5.140625 0-9.582031-2.953126-11.75-7.246094-.902344 1.78125-1.421875 3.789062-1.421875 5.921875v14.058593c0 7.273438 5.898438 13.171876 13.171875 13.171876h208.011719c7.277344 0 13.171875-5.898438 13.171875-13.171876v-14.058593c0-2.132813-.519531-4.140625-1.417969-5.921875-2.171875 4.296875-6.613281 7.246094-11.753906 7.246094zm0 0" fill="#d8dce5"/><path d="m498.828125 189.054688h-208.011719c-5.140625 0-9.582031-2.953126-11.75-7.25-.902344 1.785156-1.421875 3.792968-1.421875 5.925781v14.058593c0 7.273438 5.898438 13.167969 13.171875 13.167969h208.011719c7.277344 0 13.171875-5.894531 13.171875-13.167969v-14.058593c0-2.132813-.519531-4.140625-1.417969-5.925781-2.171875 4.296874-6.613281 7.25-11.753906 7.25zm0 0" fill="#d8dce5"/><path d="m394.824219 0h-104.007813c-7.273437 0-13.171875 5.898438-13.171875 13.171875v14.058594c0 7.273437 5.898438 13.171875 13.171875 13.171875h104.007813zm0 0" fill="#ff6b6b"/><path d="m290.816406 14.496094c-5.140625 0-9.582031-2.953125-11.75-7.25-.941406 1.863281-1.417968 3.96875-1.421875 5.921875v.003906 14.058594c0 4.546875 2.304688 8.554687 5.808594 10.921875.351563.234375.710937.457031 1.085937.660156 1.867188 1.011719 4.003907 1.589844 6.277344 1.589844h104.007813v-25.90625zm0 0" fill="#ee5253"/><path d="m450.621094 87.28125h-159.804688c-7.273437 0-13.171875 5.894531-13.171875 13.171875v14.054687c0 7.277344 5.898438 13.171876 13.171875 13.171876h159.804688zm0 0" fill="#feca57"/><path d="m450.621094 127.679688v-25.90625h-159.804688c-5.140625 0-9.582031-2.953126-11.75-7.246094-.914062 1.800781-1.417968 3.902344-1.421875 5.917968v.003907 14.058593c0 2.84375.910157 5.46875 2.441407 7.621094.40625.570313.851562 1.109375 1.339843 1.609375.027344.023438.050781.054688.078125.082031 2.382813 2.386719 5.675782 3.859376 9.3125 3.859376zm0 0" fill="#f4b537"/><path d="m394.824219 174.558594h-104.007813c-7.273437 0-13.171875 5.898437-13.171875 13.171875v14.058593c0 7.273438 5.898438 13.171876 13.171875 13.171876h104.007813zm0 0" fill="#54a0ff"/><path d="m394.824219 214.957031v-25.90625h-104.007813c-5.140625 0-9.582031-2.949219-11.75-7.246093-.9375 1.851562-1.417968 3.960937-1.421875 5.917968v.007813 14.054687c0 2.84375.910157 5.46875 2.441407 7.621094 2.386718 3.355469 6.300781 5.550781 10.730468 5.550781zm0 0" fill="#338def"/></svg>