<?xml version="1.0" encoding="UTF-8" standalone="no"?>
<svg
   class="mud-icon-root mud-icon-default mud-svg-icon mud-icon-size-medium mud-nav-link-icon mud-nav-link-icon-default"
   focusable="false"
   viewBox="0 0 450.54296 454.5"
   width="195.88824"
   height="194.78261"
   aria-hidden="true"
   version="1.1"
   id="svg28"
   sodipodi:docname="TestRecupSvg3.svg"
   inkscape:version="1.1.2 (b8e25be833, 2022-02-05)"
   xmlns:inkscape="http://www.inkscape.org/namespaces/inkscape"
   xmlns:sodipodi="http://sodipodi.sourceforge.net/DTD/sodipodi-0.dtd"
   xmlns="http://www.w3.org/2000/svg"
   xmlns:svg="http://www.w3.org/2000/svg">
  <sodipodi:namedview
     id="namedview17"
     pagecolor="#ffffff"
     bordercolor="#666666"
     borderopacity="1.0"
     inkscape:pageshadow="2"
     inkscape:pageopacity="0.0"
     inkscape:pagecheckerboard="0"
     showgrid="false"
     scale-x="2.4"
     fit-margin-top="0"
     fit-margin-left="0"
     fit-margin-right="0"
     fit-margin-bottom="0"
     viewbox-height="454.5"
     inkscape:zoom="0.14928528"
     inkscape:cx="-1108.6157"
     inkscape:cy="1172.2522"
     inkscape:window-width="1920"
     inkscape:window-height="1017"
     inkscape:window-x="-8"
     inkscape:window-y="-8"
     inkscape:window-maximized="1"
     inkscape:current-layer="svg28" />
  <defs
     id="defs32" />
  <!--!-->
  <path
     d="m 448,376 c 0,39.76172 -32.23438,72 -72,72 -39.76563,0 -72,-32.23828 -72,-72 0,-39.76562 32.23437,-72 72,-72 39.76562,0 72,32.23438 72,72 z m 0,0"
     id="path2" />
  <path
     d="M 368,226.74219 H 350.05469 L 368,244.6875 Z m 0,0"
     id="path4" />
  <path
     d="M 401.94531,226.74219 H 384 v 17.94531 z m 0,0"
     id="path6" />
  <path
     d="M 218.74219,46.054688 V 64 h 17.94531 z m 0,0"
     id="path8" />
  <path
     d="M 218.74219,80 V 97.941408 L 236.6875,80 Z m 0,0"
     id="path10" />
  <path
     d="M 301.45703,72 376,132.86328 450.54297,72 376,11.132813 Z m 0,0"
     id="path12" />
  <path
     d="M 0,304 H 144 V 448 H 0 Z m 0,0"
     id="path14" />
  <path
     d="M 72,184 34.742188,221.25391 H 64 V 288 h 16 v -66.74609 h 29.25781 z m 0,0"
     id="path16" />
  <path
     d="m 144,72 c 0,39.76172 -32.23437,72 -72,72 C 32.234375,144 0,111.76172 0,72 0,32.234376 32.234375,0 72,0 c 39.76563,0 72,32.234376 72,72 z m 0,0"
     id="path18" />
  <path
     d="M 218.74219,46.054688 236.6875,64 H 218.74219 V 80 H 236.6875 L 218.74219,97.941408 V 109.25391 L 256,72 218.74219,34.742188 Z m 0,0"
     id="path20" />
  <path
     d="m 368,244.6875 -17.94531,-17.94531 h -11.3125 L 376,264 413.25781,226.74219 h -11.3125 L 384,244.6875 v -17.94531 h -16 z m 0,0"
     id="path22" />
  <path
     d="m 368,152 h 16 v 74.74219 h -16 z m 0,0"
     id="path24" />
  <path
     d="m 160,64 h 58.74219 V 80 H 160 Z m 0,0"
     id="path26" />
</svg>
