<?xml version="1.0" encoding="UTF-8" standalone="no"?>
<svg
   class="mud-icon-root mud-icon-default mud-svg-icon mud-icon-size-medium mud-nav-link-icon mud-nav-link-icon-default"
   focusable="false"
   viewBox="0 0 55.999999 56"
   aria-hidden="true"
   version="1.1"
   id="svg33"
   width="56"
   height="56"
   xmlns="http://www.w3.org/2000/svg"
   xmlns:svg="http://www.w3.org/2000/svg">
  <defs
     id="defs37" />
  <g
     id="Workflow"
     transform="translate(-4,-4)">
    <path
       d="M 27.659,55.2 A 1,1 0 0 0 28.64,56 h 6.72 a 1,1 0 0 0 0.981,-0.8 l 1.248,-6.239 -5.089,2.907 a 1,1 0 0 1 -0.992,0 l -5.093,-2.91 z"
       id="path2" />
    <path
       d="M 32,49.849 37.183,46.887 34.4,44.8 A 1,1 0 0 1 34,44 v -2.3 a 6.927,6.927 0 0 1 -4,0 V 44 a 1,1 0 0 1 -0.4,0.8 l -2.783,2.087 z"
       id="path4" />
    <path
       d="m 39,29 v 0.586 l 1,-1 V 28 A 4.831,4.831 0 0 0 39.329,25.509 5,5 0 0 0 35,23 H 29 A 5,5 0 0 0 24.677,25.5 4.841,4.841 0 0 0 24,28 v 0.586 l 1,1 V 29 a 1,1 0 0 1 0.553,-0.895 l 4,-2 a 0.99,0.99 0 0 1 0.689,-0.075 l 8,2 A 1,1 0 0 1 39,29 Z"
       id="path6" />
    <rect
       x="38"
       y="32"
       width="3"
       height="3"
       id="rect8" />
    <path
       d="M 37,35 V 29.781 L 30.116,28.06 27,29.618 V 35 a 5,5 0 0 0 10,0 z"
       id="path10" />
    <rect
       x="23"
       y="32"
       width="3"
       height="3"
       id="rect12" />
    <path
       d="M 43,48 H 39.82 L 38.3,55.589 A 3.008,3.008 0 0 1 35.36,58 H 28.64 A 3.008,3.008 0 0 1 25.7,55.588 L 24.18,48 H 21 a 1,1 0 0 0 -1,1 V 60 H 44 V 49 a 1,1 0 0 0 -1,-1 z"
       id="path14" />
    <path
       d="M 59,4 H 47 a 1,1 0 0 0 -1,1 v 12 a 1,1 0 0 0 1,1 h 12 a 1,1 0 0 0 1,-1 V 5 A 1,1 0 0 0 59,4 Z M 58,16 H 48 v -2 h 10 z m 0,-4 H 48 V 10 H 58 Z M 58,8 H 48 V 6 h 10 z"
       id="path16" />
    <path
       d="M 17,4 H 5 A 1,1 0 0 0 4,5 v 12 a 1,1 0 0 0 1,1 h 12 a 1,1 0 0 0 1,-1 V 5 A 1,1 0 0 0 17,4 Z m 0,8 H 14.858 A 3.991,3.991 0 0 1 12,14.858 V 17 H 10 V 14.858 A 3.991,3.991 0 0 1 7.142,12 H 5 V 10 H 7.142 A 3.991,3.991 0 0 1 10,7.142 V 5 h 2 V 7.142 A 3.991,3.991 0 0 1 14.858,10 H 17 Z"
       id="path18" />
    <circle
       cx="11"
       cy="11"
       r="2"
       id="circle20" />
    <path
       d="M 17,30 H 5 a 1,1 0 0 0 -1,1 v 12 a 1,1 0 0 0 1,1 h 12 a 1,1 0 0 0 1,-1 V 31 A 1,1 0 0 0 17,30 Z M 8,38 H 6 v -2 h 2 z m 4,0 h -2 v -2 h 2 z m 4,0 h -2 v -2 h 2 z"
       id="path22" />
    <path
       d="M 59,30 H 47 a 1,1 0 0 0 -1,1 v 12 a 1,1 0 0 0 1,1 h 12 a 1,1 0 0 0 1,-1 V 31 a 1,1 0 0 0 -1,-1 z m -6.293,9.707 A 1,1 0 0 1 51.4,39.8 l -4,-3 1.2,-1.6 3.306,2.48 5.387,-5.387 1.414,1.414 z"
       id="path24" />
    <path
       d="m 36.29,14.29 1.42,1.42 4,-4 -0.01,-0.01 a 0.914,0.914 0 0 0 0.22,-0.32 1,1 0 0 0 -0.21,-1.09 l -4,-4 -1.42,1.42 2.3,2.29 H 22 v 2 h 16.59 z"
       id="path26" />
    <path
       d="m 13.29,26.71 1.42,-1.42 -3,-3 a 1.008,1.008 0 0 0 -1.42,0 l -3,3 1.42,1.42 2.29,-2.3 z"
       id="path28" />
    <path
       d="m 53.71,26.71 3,-3 -1.42,-1.42 -2.29,2.3 -2.29,-2.3 -1.42,1.42 3,3 a 1.014,1.014 0 0 0 1.42,0 z"
       id="path30" />
  </g>
</svg>
