<?xml version="1.0" encoding="iso-8859-1"?>
<!-- Generator: Adobe Illustrator 19.0.0, SVG Export Plug-In . SVG Version: 6.00 Build 0)  -->
<svg version="1.1" id="Capa_1" xmlns="http://www.w3.org/2000/svg" xmlns:xlink="http://www.w3.org/1999/xlink" x="0px" y="0px"
	 viewBox="0 0 511.999 511.999" style="enable-background:new 0 0 511.999 511.999;" xml:space="preserve">
<g>
	<g>
		<path d="M467.415,12.053C442.276,4.28,409.043,0,373.835,0s-68.44,4.28-93.578,12.053c-36.849,11.393-44.584,26.72-44.584,37.572
			v119.605c-1.361-0.46-2.75-0.917-4.2-1.366c-25.106-7.773-58.3-12.054-93.464-12.054c-35.164,0-68.357,4.28-93.464,12.054
			c-36.807,11.394-44.532,26.72-44.532,37.57v256.941c0,10.851,7.726,26.177,44.532,37.571c25.106,7.773,58.3,12.054,93.464,12.054
			c35.164,0,68.357-4.28,93.464-12.054c36.807-11.395,44.532-26.721,44.532-37.571V342.752c25.212,8.51,60.484,13.439,97.83,13.439
			c35.208,0,68.441-4.28,93.579-12.053c36.849-11.393,44.584-26.72,44.584-37.572V49.625
			C511.998,38.772,504.264,23.444,467.415,12.053z M256.004,462.374c0.001,3.634-8.108,11.552-30.446,18.466
			C202.314,488.037,171.222,492,138.008,492s-64.306-3.963-87.551-11.159c-22.338-6.915-30.446-14.833-30.446-18.466v-58.381
			c6.213,3.62,14.233,7.117,24.532,10.305c25.106,7.773,58.3,12.054,93.464,12.054s68.357-4.28,93.464-12.054
			c10.3-3.188,18.32-6.685,24.532-10.305V462.374z M256.005,376.728c0,3.634-8.108,11.552-30.446,18.466
			c-23.244,7.196-54.336,11.159-87.551,11.159c-33.214,0-64.306-3.963-87.551-11.159c-22.338-6.915-30.446-14.833-30.446-18.466
			v-58.381c6.213,3.62,14.233,7.117,24.532,10.306c25.106,7.773,58.3,12.054,93.464,12.054c35.164,0,68.357-4.28,93.464-12.054
			c10.3-3.188,18.32-6.685,24.532-10.306V376.728z M256.005,291.081c0,3.635-8.108,11.552-30.446,18.466
			c-23.244,7.196-54.336,11.159-87.551,11.159c-33.214,0-64.306-3.963-87.551-11.159c-22.338-6.915-30.446-14.832-30.446-18.466
			V232.7c6.213,3.62,14.233,7.117,24.532,10.306c25.106,7.773,58.3,12.054,93.464,12.054s68.357-4.28,93.464-12.054
			c10.3-3.188,18.32-6.685,24.532-10.306V291.081z M225.559,223.901c-23.244,7.196-54.336,11.159-87.551,11.159
			c-33.214,0-64.306-3.963-87.551-11.159c-22.338-6.915-30.446-14.832-30.446-18.466s8.108-11.552,30.446-18.466
			c23.244-7.196,54.337-11.159,87.551-11.159c33.214,0,64.306,3.963,87.551,11.159c22.338,6.915,30.446,14.832,30.446,18.466
			S247.898,216.986,225.559,223.901z M491.999,306.565c0,2.515-5.479,10.734-30.492,18.466c-23.275,7.197-54.411,11.16-87.672,11.16
			c-38.859,0-74.832-5.462-97.83-14.729v-64.357c25.211,8.51,60.484,13.438,97.83,13.438c35.208,0,68.441-4.28,93.579-12.053
			c10.324-3.192,18.36-6.693,24.584-10.318V306.565z M491.999,220.918c0,2.514-5.479,10.732-30.492,18.466
			c-23.275,7.197-54.412,11.16-87.672,11.16c-38.859,0-74.832-5.462-97.83-14.729v-30.382c0-7.933-4.146-18.256-20.749-27.689
			c0.267-0.902,0.417-1.856,0.417-2.847v-12.371c6.224,3.625,14.261,7.126,24.584,10.318c25.138,7.772,58.37,12.053,93.578,12.053
			c35.208,0,68.441-4.28,93.579-12.053c10.324-3.192,18.36-6.693,24.584-10.318V220.918z M491.999,135.272
			c0,2.514-5.479,10.732-30.492,18.466c-23.275,7.196-54.412,11.16-87.672,11.16c-33.259,0-64.394-3.964-87.671-11.16
			c-25.014-7.733-30.492-15.952-30.492-18.466V76.88h0c6.224,3.625,14.261,7.126,24.584,10.319
			c25.137,7.772,58.37,12.053,93.578,12.053c35.208,0,68.441-4.28,93.579-12.053c10.324-3.192,18.36-6.694,24.584-10.319V135.272z
			 M461.507,68.091c-23.275,7.196-54.412,11.16-87.672,11.16c-33.26,0-64.394-3.964-87.671-11.16
			c-25.014-7.734-30.492-15.953-30.492-18.466s5.478-10.732,30.492-18.465c23.275-7.197,54.411-11.16,87.671-11.16
			c33.26,0,64.395,3.963,87.672,11.16c25.014,7.733,30.492,15.952,30.492,18.465C491.999,52.14,486.52,60.356,461.507,68.091z"/>
	</g>
</g>
<g>
	<g>
		<path d="M509.07,434.291l-60.637-60.637c-2.86-2.86-7.161-3.714-10.898-2.168c-3.736,1.548-6.173,5.194-6.173,9.239v27.295
			h-70.998c-5.522,0-10,4.478-10,10s4.478,10,10,10h80.998c5.522,0,10-4.478,10-10v-13.153l36.495,36.495l-36.495,36.495v-11.951
			c0-5.522-4.478-10-10-10H363c-5.522,0-10,4.478-10,10s4.478,10,10,10h68.362v26.093c0,4.045,2.437,7.691,6.173,9.239
			c1.237,0.512,2.537,0.761,3.825,0.761c2.603,0,5.16-1.016,7.073-2.929l60.637-60.637
			C512.974,444.528,512.974,438.196,509.07,434.291z"/>
	</g>
</g>
<g>
	<g>
		<path d="M331.743,458.834c-1.86-1.861-4.44-2.93-7.07-2.93c-2.641,0-5.21,1.069-7.08,2.93c-1.86,1.86-2.92,4.44-2.92,7.07
			c0,2.63,1.06,5.21,2.92,7.069c1.87,1.86,4.439,2.931,7.08,2.931c2.63,0,5.21-1.07,7.07-2.931c1.859-1.859,2.93-4.439,2.93-7.069
			C334.673,463.274,333.603,460.694,331.743,458.834z"/>
	</g>
</g>
<g>
	<g>
		<path d="M141.329,83.992H70.636c-5.522,0-10,4.478-10,10v13.152L24.142,70.649l36.495-36.495v11.951c0,5.522,4.478,10,10,10
			h70.693c5.522,0,10-4.478,10-10s-4.478-10-10-10H80.636V10.013c0-4.045-2.437-7.691-6.173-9.239
			c-3.736-1.546-8.038-0.691-10.898,2.168L2.929,63.578c-3.905,3.905-3.905,10.237,0,14.143l60.635,60.635
			c1.913,1.913,4.471,2.929,7.073,2.929c1.288,0,2.588-0.249,3.825-0.761c3.736-1.548,6.173-5.194,6.173-9.239v-27.294h60.693
			c5.522,0,10-4.478,10-10S146.85,83.992,141.329,83.992z"/>
	</g>
</g>
<g>
	<g>
		<path d="M194.396,39.036c-1.86-1.86-4.439-2.931-7.07-2.931c-2.63,0-5.21,1.07-7.069,2.931c-1.86,1.859-2.931,4.439-2.931,7.069
			s1.07,5.21,2.931,7.07c1.859,1.861,4.439,2.93,7.069,2.93c2.631,0,5.21-1.069,7.07-2.93c1.86-1.861,2.93-4.44,2.93-7.07
			S196.257,40.895,194.396,39.036z"/>
	</g>
</g>
<g>
</g>
<g>
</g>
<g>
</g>
<g>
</g>
<g>
</g>
<g>
</g>
<g>
</g>
<g>
</g>
<g>
</g>
<g>
</g>
<g>
</g>
<g>
</g>
<g>
</g>
<g>
</g>
<g>
</g>
</svg>
