<svg height="512pt" viewBox="0 0 512 512" width="512pt" xmlns="http://www.w3.org/2000/svg"><path d="m120 332c-33.746094 0-60 27.375-60 60 0 33.085938 26.914062 60 60 60s60-26.914062 60-60-26.914062-60-60-60zm0 90c-16.542969 0-30-13.457031-30-30 0-16.457031 13.257812-30 30-30 16.542969 0 30 13.457031 30 30s-13.457031 30-30 30zm0 0"/><path d="m488.089844 320.113281-.03125-.046875c-.003906-.003906-.003906-.003906-.003906-.007812-.003907-.003906-.011719-.007813-.015626-.015625l-81.011718-109.007813c-14.316406-19.089844-36.195313-30.035156-60.027344-30.035156-20.039062 0-38.914062 8.023438-53.152344 22.589844-14.089844 14.410156-21.847656 33.378906-21.847656 53.410156v15h-32v-15c0-20.03125-7.757812-39-21.847656-53.410156-14.238282-14.566406-33.117188-22.589844-53.152344-22.589844-23.832031 0-45.710938 10.945312-60.070312 30.085938l-80.980469 108.96875v.003906c-.003907.003906-.003907.003906-.003907.003906l-.035156.046875c-15.640625 20.878906-23.910156 45.738281-23.910156 71.890625 0 66.167969 53.832031 120 120 120 55.8125 0 102.847656-38.300781 116.203125-90h39.59375c13.355469 51.699219 60.390625 90 116.203125 90 66.167969 0 120-53.832031 120-120 0-26.152344-8.269531-51.011719-23.910156-71.886719zm-141.089844-109.113281c14.300781 0 27.433594 6.574219 35.992188 17.980469l33.863281 45.570312c-8.066407-1.683593-16.382813-2.550781-24.855469-2.550781-35.804688 0-67.992188 15.769531-90 40.722656v-55.722656c0-24.933594 20.605469-46 45-46zm-218.03125 18.035156c8.597656-11.460937 21.730469-18.035156 36.03125-18.035156 24.394531 0 45 21.066406 45 46v55.722656c-22.007812-24.953125-54.195312-40.722656-90-40.722656-8.472656 0-16.789062.867188-24.855469 2.550781zm-8.96875 252.964844c-49.625 0-90-40.375-90-90 0-19.632812 6.207031-38.285156 17.945312-53.941406 17.191407-22.914063 43.453126-36.058594 72.054688-36.058594 49.625 0 90 40.375 90 90s-40.375 90-90 90zm120-90v-90h32v90zm152 90c-49.625 0-90-40.375-90-90s40.375-90 90-90c50.613281 0 90 41.042969 90 90 0 49.625-40.375 90-90 90zm0 0"/><path d="m392 332c-33.085938 0-60 26.914062-60 60s26.914062 60 60 60 60-26.914062 60-60c0-32.636719-26.265625-60-60-60zm0 90c-16.542969 0-30-13.457031-30-30s13.457031-30 30-30c16.75 0 30 13.546875 30 30 0 16.542969-13.457031 30-30 30zm0 0"/><path d="m256 180c37.011719 0 89.5625-21.75 138.449219-90-48.882813-68.25-101.4375-90-138.449219-90s-89.566406 21.753906-138.449219 90c48.886719 68.253906 101.441407 90 138.449219 90zm0-150c45.007812 0 85.144531 41.476562 100.824219 60-15.679688 18.523438-55.816407 60-100.824219 60-45.011719 0-85.152344-41.484375-100.828125-60 15.683594-18.523438 55.820313-60 100.828125-60zm0 0"/><path d="m256 135c24.8125 0 45-20.1875 45-45s-20.1875-45-45-45-45 20.1875-45 45 20.1875 45 45 45zm0-60c8.269531 0 15 6.730469 15 15s-6.730469 15-15 15-15-6.730469-15-15 6.730469-15 15-15zm0 0"/></svg>