<svg height="512" viewBox="0 0 60 60" width="512" xmlns="http://www.w3.org/2000/svg"><g id="Page-1" fill="none" fill-rule="evenodd"><g id="042---Checklist-Goals" fill-rule="nonzero"><g id="Cartoony" transform="translate(1 1)"><path id="Shape" d="m38 26.5v-17.5c0-1.65685425-1.3431458-3-3-3h-32c-1.65685425 0-3 1.34314575-3 3v42c0 1.6568542 1.34314575 3 3 3h35z" fill="#a4c2f7"/><path id="Shape" d="m35 6h-3c1.6568542 0 3 1.34314575 3 3v45h3v-45c0-1.65685425-1.3431458-3-3-3z" fill="#7facfa"/><path id="Shape" d="m34 28.14v-17.14c0-.5522847-.4477153-1-1-1h-28c-.55228475 0-1 .4477153-1 1v38c0 .5522847.44771525 1 1 1h29z" fill="#e8edfc"/><path id="Shape" d="m33 10h-3c.5522847 0 1 .4477153 1 1v39h3v-39c0-.5522847-.4477153-1-1-1z" fill="#cad9fc"/><path id="Shape" d="m8 8v2c0 .5522847.44771525 1 1 1h20c.5522847 0 1-.4477153 1-1v-2c0-1.65685425-1.3431458-3-3-3h-4v-1c0-2.209139-1.790861-4-4-4s-4 1.790861-4 4v1h-4c-1.65685425 0-3 1.34314575-3 3z" fill="#e8edfc"/><path id="Shape" d="m27 5h-3c1.6568542 0 3 1.34314575 3 3v2c0 .5522847-.4477153 1-1 1h3c.5522847 0 1-.4477153 1-1v-2c0-1.65685425-1.3431458-3-3-3z" fill="#cad9fc"/><path id="Shape" d="m20 4v1h3.0000159l-.0000159-1c.0037526-1.33113292-.6570589-2.5763315-1.7615337-3.31934182s-2.5069013-.88580822-3.7384663-.38065818c1.5082666.61011999 2.4967043 2.07300779 2.5 3.7z" fill="#cad9fc"/><circle id="Oval" cx="42" cy="42" fill="#a4c2f7" r="16"/><path id="Shape" d="m42 26c-.506 0-1.006.03-1.5.076 8.2180365.7714055 14.4992559 7.669838 14.4992559 15.924s-6.2812194 15.1525945-14.4992559 15.924c.494.046.994.076 1.5.076 8.836556 0 16-7.163444 16-16s-7.163444-16-16-16z" fill="#7facfa"/><circle id="Oval" cx="42" cy="42" fill="#e8edfc" r="12"/><path id="Shape" d="m42 30c-.5016004.0019005-1.0025863.0352996-1.5.1 5.9981525.7514856 10.4985957 5.8509554 10.4985957 11.896s-4.5004432 11.1445144-10.4985957 11.896c4.4513412.6000263 8.8650932-1.3360521 11.4384127-5.0174236 2.5733196-3.6813716 2.8753186-8.4916109.7826423-12.4659255s-6.2296207-6.4472272-10.721055-6.4086509z" fill="#cad9fc"/><circle id="Oval" cx="42" cy="42" fill="#a4c2f7" r="8"/><path id="Shape" d="m42 34c-.5034862.0012374-1.0057254.050122-1.5.146 3.7617378.7286911 6.4785914 4.0223343 6.4785914 7.854s-2.7168536 7.1253089-6.4785914 7.854c2.9882143.5787933 6.0459964-.5882722 7.8886671-3.0108722 1.8426707-2.4225999 2.1509569-5.6809788.7953368-8.4061798s-4.1402627-4.4450378-7.1840039-4.436948z" fill="#7facfa"/><circle id="Oval" cx="42" cy="42" fill="#e8edfc" r="4"/><path id="Shape" d="m42 38c-.514733.0016871-1.0242129.1035831-1.5.3 1.507919.6096972 2.4949783 2.0734852 2.4949783 3.7s-.9870593 3.0903028-2.4949783 3.7c1.4974132.6150441 3.2179055.2669139 4.3584144-.8818964 1.1405089-1.1488102 1.4761527-2.871782.8502653-4.3646954s-2.0898957-2.4614009-3.7086797-2.4534082z" fill="#cad9fc"/></g><g id="Cartoony_copy" fill="#fff" transform="translate(1 7)"><path id="Shape" d="m3 48h3c-1.65685425 0-3-1.3431458-3-3v-42c0-1.65685425 1.34314575-3 3-3h-3c-1.65685425 0-3 1.34314575-3 3v42c0 1.6568542 1.34314575 3 3 3z"/></g><g id="Icons"><path id="Rectangle-path" d="m0 10h2v8h-2z" fill="#fff"/><g fill="#428dff"><circle id="Oval" cx="20" cy="5" r="1"/><circle id="Oval" cx="1" cy="14" r="1"/><path id="Shape" d="m59.707 26.293c-.3904999-.3903819-1.0235001-.3903819-1.414 0l-.363.362c-.1654365-.4546043-.6338764-.7243388-1.1100986-.639211-.4762222.0851277-.8222045.5004456-.8199014.984211v1.586l-1.725 1.725c-3.8720209-3.4914017-9.1488085-4.9811008-14.275-4.03v-16.281c0-2.209139-1.790861-4-4-4h-5.382c-.7218919-.64082521-1.6527168-.9963733-2.618-1h-3c0-2.76142375-2.2385763-5-5-5s-5 2.23857625-5 5h-3c-.9652832.0036267-1.8961081.35917479-2.618 1h-5.382c-2.209139 0-4 1.790861-4 4 0 .5522847.44771525 1 1 1s1-.4477153 1-1c0-1.1045695.8954305-2 2-2h4.142c-.09005067.32585845-.13777626.66195413-.142 1v1h-2c-1.1045695 0-2 .8954305-2 2v38c0 1.1045695.8954305 2 2 2h22.6c.4367247.7012303.9240176 1.3696705 1.458 2h-26.058c-1.1045695 0-2-.8954305-2-2v-34c0-.5522847-.44771525-1-1-1s-1 .4477153-1 1v34c0 2.209139 1.790861 4 4 4h28.068c.344.289.7.559 1.07.82l-1 1.667c-.1944927.3070018-.2071171.6953542-.0329738 1.0143394.1741433.3189853.5076369.5183818.8710535.5208048.3634166.0024229.6995393-.1925093.8779203-.5091442l.966-1.616c5.090062 2.8039513 11.261938 2.8039513 16.352 0l.966 1.616c.2901804.4580424.8925339.6013739 1.3579178.3231199.465384-.278254.6242242-.8767049.3580822-1.3491199l-1-1.667c3.934018-2.7886359 6.4919305-7.1227687 7.0317389-11.9145946.5398084-4.7918258-.9897356-9.5864185-4.2047389-13.1804054l1.733-1.725h1.586c.4769899-.0093185.8809711-.3542863.9648796-.8239304.0839084-.4696441-.1756263-.9331582-.6198796-1.1070696l.362-.362c.3903819-.3904999.3903819-1.0235001 0-1.414zm-21.707-16.293v16.753c-.6825369.2145584-1.3505802.4727571-2 .773v-15.526c0-1.1045695-.8954305-2-2-2h-2v-1c-.0042237-.33804587-.0519493-.67414155-.142-1h4.142c1.1045695 0 2 .8954305 2 2zm-23-3v1c0 .55228475.4477153 1 1 1s1-.44771525 1-1v-3c0-1.65685425 1.3431458-3 3-3s3 1.34314575 3 3v3c0 .55228475.4477153 1 1 1s1-.44771525 1-1v-1h3c1.1045695 0 2 .8954305 2 2v2h-20v-2c0-1.1045695.8954305-2 2-2zm-9 43v-38h2.278c.35441258.6167513 1.01067322.997855 1.722 1h20c.7113268-.002145 1.3675874-.3832487 1.722-1h2.278v16.6c-7.2367139 4.4870567-10.0099194 13.65397-6.474 21.4zm52-7c.0244165 7.0918255-4.9047706 13.2386656-11.8325253 14.7555042-6.9277548 1.5168386-13.974533-2.0078522-16.9158078-8.4610287-2.9412749-6.4531765-.9790598-14.0840507 4.7103021-18.3179315 5.6893618-4.2338809 13.5623101-3.9220894 18.899031.748456l-1.414 1.414c-5.3197262-4.5599049-13.2920955-4.1004473-18.0527551 1.0404029-4.7606595 5.1408501-4.6074317 13.1249778.3469713 18.0793809 4.9544031 4.954403 12.9385308 5.1076308 18.0793809.3469713 5.1408502-4.7606596 5.6003078-12.7330289 1.0404029-18.0527551l1.414-1.414c2.4000513 2.7243231 3.7244263 6.2302725 3.725 9.861zm-8 0c.0120804 3.2612721-2.2209848 6.1023718-5.3927791 6.8611623-3.1717942.7587905-6.4488636-.7641158-7.9140148-3.6777688s-.7333857-6.4524306 1.7671895-8.5460316c2.5005753-2.093601 6.112883-2.1918888 8.7236044-.2373619l-1.431 1.431c-2.1473777-1.4213065-5.0222325-.985234-6.6515332 1.0089382-1.6293006 1.9941722-1.4834539 4.8982517.3374447 6.7191503s4.7249781 1.9667453 6.7191503.3374447c1.9941722-1.6293007 2.4302447-4.5041555 1.0089382-6.6515332l1.433-1.429c.9085171 1.2056953 1.399934 2.6743297 1.4 4.184zm-4 0c0 1.6568542-1.3431458 3-3 3s-3-1.3431458-3-3 1.3431458-3 3-3c.4454868.0017247.8848019.1042886 1.285.3l-1.992 1.992c-.2599566.2510745-.3642126.6228779-.2726972.9725073.0915155.3496295.3645604.6226744.7141899.7141899.3496294.0915154.7214328-.0127406.9725073-.2726972l1.993-1.991c.1957114.4001981.2982753.8395132.3 1.285zm2.611-7.025c-3.7405176-2.9900716-9.1653412-2.5372483-12.358371 1.0315835-3.1930298 3.5688319-3.0419335 9.0104245.3442148 12.3965727 3.3861482 3.3861483 8.8277408 3.5372446 12.3965727.3442148 3.5688318-3.1930298 4.0216551-8.6178534 1.0315835-12.358371l1.423-1.423c3.7696425 4.5255975 3.3129339 11.2157425-1.0367582 15.1870666-4.3496922 3.9713241-11.0536772 3.8189831-15.2184844-.345824-4.1648071-4.1648072-4.3171481-10.8687922-.345824-15.2184844 3.9713241-4.3496921 10.6614691-4.8064007 15.1870666-1.0367582z"/><path id="Shape" d="m12.168 16.445-1.323 1.986-.138-.138c-.3923789-.3789722-1.01608478-.3735524-1.40181858.0121814-.38573379.3857338-.39115363 1.0094397-.01218142 1.4018186l1 1c.1874927.1875494.4418052.2929434.707.293h.1c.2978726-.0295676.5668354-.1910187.733-.44l2-3c.306518-.4595009.1825009-1.080482-.277-1.387s-1.080482-.1825009-1.387.277z"/><path id="Shape" d="m17 20h13c.5522847 0 1-.4477153 1-1s-.4477153-1-1-1h-13c-.5522847 0-1 .4477153-1 1s.4477153 1 1 1z"/><path id="Shape" d="m12.168 24.445-1.323 1.986-.138-.138c-.3923789-.3789722-1.01608478-.3735524-1.40181858.0121814-.38573379.3857338-.39115363 1.0094397-.01218142 1.4018186l1 1c.1874927.1875494.4418052.2929434.707.293h.1c.2978726-.0295676.5668354-.1910187.733-.44l2-3c.306518-.4595009.1825009-1.080482-.277-1.387s-1.080482-.1825009-1.387.277z"/><path id="Shape" d="m17 28h13c.5522847 0 1-.4477153 1-1s-.4477153-1-1-1h-13c-.5522847 0-1 .4477153-1 1s.4477153 1 1 1z"/><path id="Shape" d="m23 42h-6c-.5522847 0-1 .4477153-1 1s.4477153 1 1 1h6c.5522847 0 1-.4477153 1-1s-.4477153-1-1-1z"/><path id="Shape" d="m12.168 32.445-1.323 1.986-.138-.138c-.3923789-.3789722-1.01608478-.3735524-1.40181858.0121814-.38573379.3857338-.39115363 1.0094397-.01218142 1.4018186l1 1c.1874927.1875494.4418052.2929434.707.293.033 0 .065 0 .1-.005.2978726-.0295676.5668354-.1910187.733-.44l2-3c.306518-.4595009.1825009-1.0804819-.277-1.387-.4595009-.306518-1.080482-.1825009-1.387.277z"/><path id="Shape" d="m12.168 40.445-1.323 1.986-.138-.138c-.3923789-.3789722-1.01608478-.3735524-1.40181858.0121814-.38573379.3857338-.39115363 1.0094397-.01218142 1.4018186l1 1c.1874927.1875494.4418052.2929434.707.293.033 0 .065 0 .1-.005.2978726-.0295676.5668354-.1910187.733-.44l2-3c.306518-.4595009.1825009-1.080482-.277-1.387s-1.080482-.1825009-1.387.277z"/><path id="Shape" d="m24.67 34h-7.67c-.5522847 0-1 .4477153-1 1s.4477153 1 1 1h7.67c.5522847 0 1-.4477153 1-1s-.4477153-1-1-1z"/></g></g></g></g></svg>