<?xml version="1.0" encoding="iso-8859-1"?>
<!-- Generator: Adobe Illustrator 19.0.0, SVG Export Plug-In . SVG Version: 6.00 Build 0)  -->
<svg version="1.1" id="Capa_1" xmlns="http://www.w3.org/2000/svg" xmlns:xlink="http://www.w3.org/1999/xlink" x="0px" y="0px"
	 viewBox="0 0 511.999 511.999" style="enable-background:new 0 0 511.999 511.999;" xml:space="preserve">
<polygon style="fill:#A0E892;" points="324.669,465.906 441.361,465.906 441.361,501.999 501.999,441.362 441.361,380.726 
	441.361,418.02 324.669,418.02 "/>
<polygon style="fill:#FEB756;" points="187.328,46.105 70.636,46.105 70.636,10.013 10,70.649 70.636,131.285 70.636,93.991 
	187.328,93.991 "/>
<path style="fill:#41C0F0;" d="M501.832,49.625v256.936c0,21.883-57.343,39.624-128.08,39.624s-128.079-17.741-128.079-39.624
	V49.625H501.832z"/>
<g>
	<path style="fill:#D0E6EF;" d="M373.752,175.823c-70.736,0-128.079-17.741-128.079-39.624v85.16
		c0,21.884,57.343,39.624,128.079,39.624s128.08-17.741,128.08-39.624v-85.16C501.832,158.083,444.488,175.823,373.752,175.823z"/>
	<ellipse style="fill:#D0E6EF;" cx="373.749" cy="49.625" rx="128.077" ry="39.624"/>
</g>
<path style="fill:#41C0F0;" d="M266.005,205.433v256.936c0,21.884-57.306,39.624-127.997,39.624S10.012,484.253,10.012,462.369
	V205.433H266.005z"/>
<g>
	<path style="fill:#D0E6EF;" d="M138.009,331.632c-70.69,0-127.997-17.741-127.997-39.624v85.16
		c0,21.884,57.306,39.624,127.997,39.624s127.997-17.741,127.997-39.624v-85.16C266.005,313.891,208.699,331.632,138.009,331.632z"
		/>
	<ellipse style="fill:#D0E6EF;" cx="138.006" cy="205.434" rx="127.997" ry="39.624"/>
</g>
<path d="M373.835,356.19c35.208,0,68.441-4.28,93.579-12.053c36.849-11.393,44.584-26.72,44.584-37.572V49.625
	c0-10.853-7.735-26.18-44.584-37.572C442.276,4.28,409.043,0,373.835,0s-68.44,4.28-93.578,12.053
	c-36.849,11.393-44.584,26.72-44.584,37.572v119.605c-1.361-0.46-2.75-0.917-4.2-1.366c-25.106-7.773-58.3-12.054-93.464-12.054
	s-68.357,4.28-93.464,12.054c-36.807,11.394-44.532,26.72-44.532,37.57v256.941c0,10.851,7.726,26.177,44.532,37.571
	c25.106,7.773,58.3,12.054,93.464,12.054s68.357-4.28,93.464-12.054c36.807-11.395,44.532-26.721,44.532-37.571V342.752
	C301.217,351.261,336.489,356.19,373.835,356.19z M461.507,325.031c-23.275,7.197-54.412,11.16-87.672,11.16
	c-38.859,0-74.832-5.462-97.83-14.729v-64.357c25.211,8.51,60.484,13.438,97.83,13.438c35.208,0,68.441-4.28,93.579-12.053
	c10.324-3.192,18.361-6.693,24.584-10.318v58.392C491.999,309.08,486.52,317.298,461.507,325.031z M256.005,291.081
	c0,3.635-8.108,11.552-30.446,18.466c-23.244,7.196-54.337,11.159-87.551,11.159s-64.306-3.963-87.551-11.159
	c-22.338-6.915-30.446-14.832-30.446-18.466V232.7c6.213,3.62,14.233,7.117,24.532,10.306c25.106,7.773,58.3,12.054,93.464,12.054
	s68.357-4.28,93.464-12.054c10.3-3.188,18.32-6.685,24.532-10.306V291.081z M20.012,318.346c6.213,3.62,14.233,7.117,24.532,10.306
	c25.106,7.773,58.3,12.054,93.464,12.054s68.357-4.28,93.464-12.054c10.3-3.188,18.32-6.685,24.532-10.306v58.381
	c0,3.634-8.108,11.552-30.446,18.466c-23.244,7.196-54.337,11.159-87.551,11.159s-64.306-3.963-87.551-11.159
	c-22.338-6.915-30.446-14.833-30.446-18.466C20.012,376.728,20.012,318.346,20.012,318.346z M255.672,76.88
	c6.224,3.625,14.261,7.126,24.584,10.319c25.137,7.772,58.37,12.053,93.578,12.053s68.441-4.28,93.579-12.053
	c10.324-3.192,18.361-6.694,24.584-10.319v58.392c0,2.514-5.479,10.732-30.492,18.465c-23.275,7.196-54.412,11.16-87.672,11.16
	c-33.259,0-64.394-3.964-87.671-11.16c-25.014-7.733-30.492-15.952-30.492-18.465L255.672,76.88L255.672,76.88z M286.165,31.159
	c23.275-7.197,54.411-11.16,87.671-11.16c33.26,0,64.395,3.963,87.672,11.16c25.014,7.733,30.492,15.952,30.492,18.465
	c0,2.515-5.479,10.732-30.492,18.466c-23.275,7.196-54.412,11.16-87.672,11.16s-64.394-3.964-87.671-11.16
	c-25.014-7.734-30.492-15.953-30.492-18.466S261.15,38.893,286.165,31.159z M255.672,174.896v-12.371
	c6.224,3.625,14.261,7.126,24.584,10.318c25.138,7.772,58.37,12.053,93.578,12.053s68.441-4.28,93.579-12.053
	c10.324-3.192,18.361-6.693,24.584-10.318v58.392c0,2.514-5.479,10.732-30.492,18.465c-23.275,7.197-54.412,11.16-87.672,11.16
	c-38.859,0-74.832-5.462-97.83-14.729v-30.382c0-7.933-4.146-18.257-20.749-27.689C255.522,176.841,255.672,175.887,255.672,174.896
	z M50.458,186.968c23.244-7.196,54.337-11.159,87.551-11.159s64.306,3.963,87.551,11.159c22.338,6.915,30.446,14.832,30.446,18.466
	c0,3.635-8.108,11.552-30.446,18.466c-23.244,7.196-54.337,11.159-87.551,11.159s-64.306-3.963-87.551-11.159
	c-22.338-6.915-30.446-14.832-30.446-18.466C20.012,201.799,28.12,193.883,50.458,186.968z M225.558,480.841
	C202.314,488.037,171.222,492,138.008,492s-64.306-3.963-87.551-11.159c-22.338-6.915-30.446-14.833-30.446-18.467v-58.381
	c6.213,3.62,14.233,7.117,24.532,10.305c25.106,7.773,58.3,12.054,93.464,12.054s68.357-4.28,93.464-12.054
	c10.3-3.188,18.32-6.685,24.532-10.305v58.381C256.005,466.008,247.897,473.926,225.558,480.841z"/>
<path d="M509.069,434.291l-60.637-60.637c-2.86-2.86-7.161-3.714-10.898-2.168c-3.736,1.548-6.173,5.194-6.173,9.239v27.295h-70.998
	c-5.522,0-10,4.478-10,10s4.478,10,10,10h80.998c5.522,0,10-4.478,10-10v-13.153l36.495,36.495l-36.495,36.495v-11.951
	c0-5.522-4.478-10-10-10h-78.362c-5.522,0-10,4.478-10,10s4.478,10,10,10h68.362v26.093c0,4.045,2.437,7.691,6.173,9.239
	c1.237,0.512,2.537,0.761,3.825,0.761c2.603,0,5.16-1.016,7.073-2.929l60.637-60.637
	C512.974,444.528,512.974,438.196,509.069,434.291z"/>
<path d="M324.674,455.905c-2.641,0-5.21,1.069-7.08,2.93c-1.86,1.86-2.92,4.44-2.92,7.07c0,2.63,1.06,5.21,2.92,7.069
	c1.87,1.86,4.439,2.931,7.08,2.931c2.63,0,5.21-1.07,7.07-2.931c1.859-1.859,2.93-4.439,2.93-7.069c0-2.63-1.07-5.21-2.93-7.07
	C329.883,456.974,327.303,455.905,324.674,455.905z"/>
<path d="M63.565,138.356c1.913,1.913,4.471,2.929,7.073,2.929c1.288,0,2.588-0.249,3.825-0.761c3.736-1.548,6.173-5.194,6.173-9.239
	v-27.294h60.693c5.522,0,10-4.478,10-10c0-5.522-4.478-10-10-10H70.636c-5.522,0-10,4.478-10,10v13.152L24.142,70.649l36.495-36.495
	v11.951c0,5.522,4.478,10,10,10h70.693c5.522,0,10-4.478,10-10s-4.478-10-10-10H80.636V10.013c0-4.045-2.437-7.691-6.173-9.239
	c-3.736-1.546-8.038-0.691-10.898,2.168L2.929,63.578c-3.905,3.905-3.905,10.237,0,14.143L63.565,138.356z"/>
<path d="M187.326,56.104c2.631,0,5.21-1.069,7.07-2.93c1.86-1.861,2.93-4.44,2.93-7.07s-1.069-5.21-2.93-7.069
	c-1.86-1.86-4.439-2.931-7.07-2.931c-2.63,0-5.21,1.07-7.069,2.931c-1.86,1.859-2.931,4.439-2.931,7.069s1.07,5.21,2.931,7.07
	C182.116,55.035,184.696,56.104,187.326,56.104z"/>
<g>
</g>
<g>
</g>
<g>
</g>
<g>
</g>
<g>
</g>
<g>
</g>
<g>
</g>
<g>
</g>
<g>
</g>
<g>
</g>
<g>
</g>
<g>
</g>
<g>
</g>
<g>
</g>
<g>
</g>
</svg>
