<svg id="Capa_1" enable-background="new 0 0 511.998 511.998" height="512" viewBox="0 0 511.998 511.998" width="512" xmlns="http://www.w3.org/2000/svg"><g><g id="Page-1_41_"><g id="_x30_42---Checklist-Goals"><path id="Shape_302_" d="m88.276 52.506c-9.751 0-17.655 7.904-17.655 17.655v17.655h176.552v-17.655c0-9.751-7.904-17.655-17.655-17.655h-26.483v8.828c0 4.875-3.952 8.828-8.828 8.828s-8.828-3.952-8.828-8.828v-26.483c0-14.626-11.857-26.483-26.483-26.483s-26.483 11.857-26.483 26.483v26.483c0 4.875-3.952 8.828-8.828 8.828-4.875 0-8.828-3.952-8.828-8.828v-8.828zm70.621-26.483c4.875 0 8.828 3.952 8.828 8.828s-3.952 8.828-8.828 8.828-8.828-3.952-8.828-8.828 3.952-8.828 8.828-8.828z"/><path id="Shape_301_" d="m317.793 226.877v-147.888c0-9.751-7.904-17.655-17.655-17.655h-36.564c.795 2.877 1.216 5.843 1.254 8.828v8.828h17.655c9.751 0 17.655 7.904 17.655 17.655v137.057c5.733-2.651 11.63-4.931 17.655-6.825z"/><path id="Shape_300_" d="m17.655 467.403h230.065c-4.726-5.563-9.039-11.464-12.906-17.655h-199.504c-9.751 0-17.655-7.905-17.655-17.655v-335.449c0-9.751 7.904-17.655 17.655-17.655h17.655v-8.828c.037-2.984.459-5.951 1.254-8.828h-36.564c-9.751.001-17.655 7.905-17.655 17.656v370.759c0 9.75 7.904 17.655 17.655 17.655z"/><path id="Shape_299_" d="m282.483 243.182v-146.538h-20.109c-3.129 5.444-8.922 8.809-15.201 8.828h-176.552c-6.279-.019-12.072-3.383-15.201-8.828h-20.11v335.448h190.023c-31.214-68.378-6.733-149.3 57.15-188.91zm-150.069-93.572h114.759c4.875 0 8.828 3.952 8.828 8.828s-3.952 8.828-8.828 8.828h-114.759c-4.875 0-8.828-3.952-8.828-8.828s3.952-8.828 8.828-8.828zm-27.966 207.933-17.655 26.483c-1.456 2.212-3.828 3.654-6.462 3.928-.3 0-.583.044-.883.044-2.341 0-4.586-.931-6.241-2.586l-8.828-8.828c-3.345-3.464-3.298-8.97.108-12.375 3.405-3.405 8.911-3.453 12.375-.108l1.218 1.218 11.679-17.532c2.706-4.056 8.188-5.151 12.244-2.445s5.151 8.188 2.445 12.244zm-17.655-44.138c-1.467 2.198-3.841 3.623-6.471 3.884-.3 0-.583.044-.883.044-2.341-.001-4.586-.931-6.241-2.586l-8.828-8.828c-3.345-3.464-3.298-8.97.108-12.375 3.405-3.405 8.911-3.453 12.375-.108l1.218 1.218c6.833-7.804 12.615-27.489 23.923-19.977 11.82 7.885-5.853 21.25-15.201 38.728zm17.655-97.103-17.655 26.483c-1.456 2.212-3.828 3.654-6.462 3.928-.3 0-.583 0-.883 0-2.341-.001-4.586-.931-6.241-2.586l-8.828-8.828c-3.345-3.464-3.298-8.97.108-12.375 3.405-3.405 8.911-3.453 12.375-.108l1.218 1.218 11.679-17.532c2.706-4.056 8.188-5.151 12.244-2.445 4.056 2.707 5.151 8.189 2.445 12.245zm0-70.621-17.655 26.483c-1.456 2.212-3.828 3.654-6.462 3.928-.3 0-.583 0-.883 0-2.341-.001-4.586-.931-6.241-2.586l-8.828-8.828c-3.345-3.464-3.298-8.97.108-12.375 3.405-3.405 8.911-3.453 12.375-.108l1.218 1.218 11.679-17.532c1.75-2.624 4.768-4.115 7.915-3.911 3.148.204 5.947 2.071 7.345 4.899 1.397 2.83 1.179 6.188-.571 8.812zm80.931 233.446h-52.966c-4.875 0-8.828-3.952-8.828-8.828s3.952-8.828 8.828-8.828h52.966c4.875 0 8.828 3.952 8.828 8.828s-3.952 8.828-8.828 8.828zm14.742-70.621h-67.708c-4.875 0-8.828-3.952-8.828-8.828s3.952-8.828 8.828-8.828c54.66 2.816 76.535-6.568 76.535 8.828.001 4.876-3.951 8.828-8.827 8.828zm47.051-70.621h-114.758c-4.875 0-8.828-3.952-8.828-8.828 0-4.875 3.952-8.828 8.828-8.828h114.759c4.875 0 8.828 3.952 8.828 8.828-.001 4.876-3.953 8.828-8.829 8.828z"/><path id="Shape_298_" d="m509.414 222.817c-3.447-3.446-9.035-3.446-12.482 0l-3.204 3.196c-1.46-4.013-5.596-6.394-9.799-5.643-4.204.751-7.258 4.418-7.238 8.688v14.001l-27.71 27.71c-53.929-47.197-135.57-43.123-184.532 9.208s-47.604 134.062 3.07 184.736 132.406 52.033 184.736 3.07 56.404-130.603 9.208-184.532l27.71-27.71h14.001c4.211-.082 7.777-3.128 8.518-7.273.741-4.146-1.55-8.238-5.472-9.773l3.196-3.196c3.444-3.447 3.444-9.035-.002-12.482zm-32.724 147.482c.161 54.115-37.397 101.035-90.235 112.726s-106.684-15.003-129.369-64.134c-22.685-49.132-8.081-107.43 35.086-140.066s103.239-30.794 144.326 4.425l-12.473 12.473c-39.95-33.277-99.008-29.245-134.065 9.152s-33.712 97.577 3.053 134.342 95.945 38.11 134.342 3.053 42.429-94.115 9.152-134.065l12.473-12.473c17.881 20.728 27.716 47.193 27.71 74.567zm-114.759 26.483c14.626 0 26.483-11.857 26.483-26.483-.015-3.933-.921-7.811-2.648-11.343l12.959-12.959c12.547 18.956 8.697 44.334-8.906 58.717-17.604 14.383-43.24 13.095-59.314-2.979s-17.362-41.71-2.979-59.314 39.761-21.453 58.717-8.906l-12.968 12.95c-3.533-1.728-7.411-2.633-11.343-2.648-14.626 0-26.483 11.857-26.483 26.483s11.856 26.482 26.482 26.482zm36.935-75.917c-26.056-19.499-62.751-15.55-84.062 9.047-21.31 24.597-19.992 61.481 3.021 84.493 23.013 23.013 59.896 24.331 84.493 3.021s28.547-58.005 9.047-84.062l12.597-12.597c26.316 32.94 22.319 80.699-9.106 108.806s-79.332 26.774-109.144-3.038-31.146-77.72-3.038-109.144c28.107-31.425 75.867-35.421 108.806-9.106z"/></g></g></g></svg>