<svg height="512" viewBox="0 0 512 512" width="512" xmlns="http://www.w3.org/2000/svg"><g><g fill="#57a4ff"><path d="m318.23 88.4-22.63-22.63-20.68 16.54-2.92-26.31h-32l-2.92 26.31-20.68-16.54-22.63 22.63 16.54 20.68-26.31 2.92v32l26.31 2.92-16.54 20.68 22.63 22.63 20.68-16.54 2.92 26.31h32l2.92-26.31 20.68 16.54 22.63-22.63-16.54-20.68 26.31-2.92v-32l-26.31-2.92zm-62.23 55.6a16 16 0 1 1 16-16 16 16 0 0 1 -16 16z"/><path d="m288 320v40h40v-8l-32-32z"/><path d="m216 344h40v24h-40z"/><path d="m120 320v40h40v-8l-32-32z"/><path d="m48 344h40v24h-40z"/><path d="m464 320h-8v40h40v-8z"/><path d="m384 344h40v24h-40z"/></g><g fill="#004fac"><path d="m256 104a24 24 0 1 0 24 24 24.028 24.028 0 0 0 -24-24zm0 32a8 8 0 1 1 8-8 8.009 8.009 0 0 1 -8 8z"/><path d="m279.951 200.884 1.32-11.875 9.329 7.464a8 8 0 0 0 10.655-.59l22.628-22.628a8 8 0 0 0 .59-10.655l-7.464-9.329 11.875-1.32a8 8 0 0 0 7.116-7.951v-32a8 8 0 0 0 -7.116-7.951l-11.875-1.32 7.464-9.329a8 8 0 0 0 -.59-10.655l-22.628-22.628a8 8 0 0 0 -10.655-.59l-9.329 7.464-1.32-11.875a8 8 0 0 0 -7.951-7.116h-32a8 8 0 0 0 -7.951 7.116l-1.32 11.875-9.329-7.464a8 8 0 0 0 -10.655.59l-22.628 22.628a8 8 0 0 0 -.59 10.655l7.464 9.329-11.875 1.32a8 8 0 0 0 -7.116 7.951v32a8 8 0 0 0 7.116 7.951l11.875 1.32-7.464 9.329a8 8 0 0 0 .59 10.655l22.628 22.628a8 8 0 0 0 10.655.59l9.329-7.464 1.32 11.875a8 8 0 0 0 7.951 7.116h32a8 8 0 0 0 7.951-7.116zm-12.978-28.084-2.133 19.2h-17.68l-2.133-19.2a8 8 0 0 0 -12.949-5.364l-15.078 12.07-12.5-12.5 12.068-15.082a8 8 0 0 0 -5.364-12.949l-19.204-2.135v-17.68l19.2-2.133a8 8 0 0 0 5.364-12.949l-12.07-15.078 12.5-12.5 15.082 12.068a8 8 0 0 0 12.951-5.368l2.133-19.2h17.68l2.133 19.2a8 8 0 0 0 12.949 5.364l15.078-12.07 12.5 12.5-12.068 15.082a8 8 0 0 0 5.364 12.949l19.204 2.135v17.68l-19.2 2.133a8 8 0 0 0 -5.364 12.949l12.07 15.078-12.5 12.5-15.082-12.068a8 8 0 0 0 -12.949 5.364z"/><path d="m296 384h-80a8 8 0 0 0 0 16h80a8 8 0 0 0 0-16z"/><path d="m296 408h-80a8 8 0 0 0 0 16h80a8 8 0 0 0 0-16z"/><path d="m296 432h-80a8 8 0 0 0 0 16h80a8 8 0 0 0 0-16z"/><path d="m272 456h-56a8 8 0 0 0 0 16h56a8 8 0 0 0 0-16z"/><path d="m216 376h40a8 8 0 0 0 8-8v-24a8 8 0 0 0 -8-8h-40a8 8 0 0 0 -8 8v24a8 8 0 0 0 8 8zm8-24h24v8h-24z"/><path d="m128 384h-80a8 8 0 0 0 0 16h80a8 8 0 0 0 0-16z"/><path d="m128 408h-80a8 8 0 0 0 0 16h80a8 8 0 0 0 0-16z"/><path d="m128 432h-80a8 8 0 0 0 0 16h80a8 8 0 0 0 0-16z"/><path d="m104 456h-56a8 8 0 0 0 0 16h56a8 8 0 0 0 0-16z"/><path d="m48 376h40a8 8 0 0 0 8-8v-24a8 8 0 0 0 -8-8h-40a8 8 0 0 0 -8 8v24a8 8 0 0 0 8 8zm8-24h24v8h-24z"/><path d="m501.66 346.34-32-32a8.008 8.008 0 0 0 -5.66-2.34h-40v-32a8 8 0 0 0 -8-8h-152v-24.27a120 120 0 1 0 -16 0v24.27h-152a8 8 0 0 0 -8 8v32h-72a8 8 0 0 0 -8 8v176a8 8 0 0 0 8 8h144a8 8 0 0 0 8-8v-144a8.008 8.008 0 0 0 -2.34-5.66l-32-32a8.008 8.008 0 0 0 -5.66-2.34h-24v-24h144v24h-64a8 8 0 0 0 -8 8v176a8 8 0 0 0 8 8h144a8 8 0 0 0 8-8v-144a8.008 8.008 0 0 0 -2.34-5.66l-32-32a8.008 8.008 0 0 0 -5.66-2.34h-32v-24h144v24h-56a8 8 0 0 0 -8 8v176a8 8 0 0 0 8 8h144a8 8 0 0 0 8-8v-144a8.008 8.008 0 0 0 -2.34-5.66zm-373.66-15.03 20.69 20.69h-20.69zm-16-3.31v32a8 8 0 0 0 8 8h32v120h-128v-160zm184 3.31 20.69 20.69h-20.69zm-16-3.31v32a8 8 0 0 0 8 8h32v120h-128v-160zm-24-96a104 104 0 1 1 104-104 104.112 104.112 0 0 1 -104 104zm208 99.31 20.69 20.69h-20.69zm24 156.69h-128v-160h88v32a8 8 0 0 0 8 8h32z"/><path d="m464 384h-80a8 8 0 0 0 0 16h80a8 8 0 0 0 0-16z"/><path d="m464 408h-80a8 8 0 0 0 0 16h80a8 8 0 0 0 0-16z"/><path d="m464 432h-80a8 8 0 0 0 0 16h80a8 8 0 0 0 0-16z"/><path d="m440 456h-56a8 8 0 0 0 0 16h56a8 8 0 0 0 0-16z"/><path d="m384 376h40a8 8 0 0 0 8-8v-24a8 8 0 0 0 -8-8h-40a8 8 0 0 0 -8 8v24a8 8 0 0 0 8 8zm8-24h24v8h-24z"/></g></g></svg>