<?xml version="1.0"?>
<svg xmlns="http://www.w3.org/2000/svg" viewBox="0 0 64 64" width="512" height="512"><g id="Workflow"><path d="M27.659,55.2a1,1,0,0,0,.981.8h6.72a1,1,0,0,0,.981-.8l1.248-6.239L32.5,51.868a1,1,0,0,1-.992,0l-5.093-2.91Z"/><path d="M32,49.849l5.183-2.962L34.4,44.8A1,1,0,0,1,34,44v-2.3a6.927,6.927,0,0,1-4,0V44a1,1,0,0,1-.4.8l-2.783,2.087Z"/><path d="M39,29v.586l1-1V28a4.831,4.831,0,0,0-.671-2.491A5,5,0,0,0,35,23H29a5,5,0,0,0-4.323,2.5A4.841,4.841,0,0,0,24,28v.586l1,1V29a1,1,0,0,1,.553-.895l4-2a.99.99,0,0,1,.689-.075l8,2A1,1,0,0,1,39,29Z"/><rect x="38" y="32" width="3" height="3"/><path d="M37,35V29.781L30.116,28.06,27,29.618V35a5,5,0,0,0,10,0Z"/><rect x="23" y="32" width="3" height="3"/><path d="M43,48H39.82L38.3,55.589A3.008,3.008,0,0,1,35.36,58H28.64A3.008,3.008,0,0,1,25.7,55.588L24.18,48H21a1,1,0,0,0-1,1V60H44V49A1,1,0,0,0,43,48Z"/><path d="M59,4H47a1,1,0,0,0-1,1V17a1,1,0,0,0,1,1H59a1,1,0,0,0,1-1V5A1,1,0,0,0,59,4ZM58,16H48V14H58Zm0-4H48V10H58Zm0-4H48V6H58Z"/><path d="M17,4H5A1,1,0,0,0,4,5V17a1,1,0,0,0,1,1H17a1,1,0,0,0,1-1V5A1,1,0,0,0,17,4Zm0,8H14.858A3.991,3.991,0,0,1,12,14.858V17H10V14.858A3.991,3.991,0,0,1,7.142,12H5V10H7.142A3.991,3.991,0,0,1,10,7.142V5h2V7.142A3.991,3.991,0,0,1,14.858,10H17Z"/><circle cx="11" cy="11" r="2"/><path d="M17,30H5a1,1,0,0,0-1,1V43a1,1,0,0,0,1,1H17a1,1,0,0,0,1-1V31A1,1,0,0,0,17,30ZM8,38H6V36H8Zm4,0H10V36h2Zm4,0H14V36h2Z"/><path d="M59,30H47a1,1,0,0,0-1,1V43a1,1,0,0,0,1,1H59a1,1,0,0,0,1-1V31A1,1,0,0,0,59,30Zm-6.293,9.707A1,1,0,0,1,51.4,39.8l-4-3,1.2-1.6,3.306,2.48,5.387-5.387,1.414,1.414Z"/><path d="M36.29,14.29l1.42,1.42,4-4-.01-.01a.914.914,0,0,0,.22-.32,1,1,0,0,0-.21-1.09l-4-4L36.29,7.71,38.59,10H22v2H38.59Z"/><path d="M13.29,26.71l1.42-1.42-3-3a1.008,1.008,0,0,0-1.42,0l-3,3,1.42,1.42L11,24.41Z"/><path d="M53.71,26.71l3-3-1.42-1.42L53,24.59l-2.29-2.3-1.42,1.42,3,3a1.014,1.014,0,0,0,1.42,0Z"/></g></svg>
