<svg height="512pt" viewBox="0 0 512 512" width="512pt" xmlns="http://www.w3.org/2000/svg"><path d="m288.199219 272v150h-64.398438c0-54.277344 0-95.722656 0-150zm0 0" fill="#145383"/><path d="m288.199219 272v150c-11.289063 0-20.910157 0-32.199219 0 0-54.277344 0-95.722656 0-150zm0 0" fill="#0f4066"/><path d="m407.027344 212.042969c-14.105469-18.808594-36.515625-30.042969-60.027344-30.042969-41.351562 0-75 33.644531-75 75v135c78.179688-26.03125 137.871094-45.90625 216.050781-71.9375-29.320312-39.089844-51.703125-68.929688-81.023437-108.019531zm0 0" fill="#145383"/><path d="m165 182c-23.511719 0-45.921875 11.234375-60.027344 30.042969-29.320312 39.089843-51.703125 68.929687-81.023437 108.019531 78.179687 26.03125 137.871093 45.90625 216.050781 71.9375 0-48.851562 0-86.148438 0-135 0-41.351562-33.644531-75-75-75zm0 0" fill="#1c78bf"/><path d="m256 0c-37.199219 0-88.800781 21.300781-138.601562 90 49.800781 68.699219 101.402343 90 138.601562 90s88.800781-21.300781 138.601562-90c-49.503906-68.402344-101.402343-90-138.601562-90zm0 0" fill="#e0f4ff"/><path d="m394.601562 90c-49.800781 68.699219-101.402343 90-138.601562 90v-180c37.199219 0 89.097656 21.597656 138.601562 90zm0 0" fill="#bbdcff"/><path d="m256 45c-24.902344 0-45 20.097656-45 45s20.097656 45 45 45 45-20.097656 45-45-20.097656-45-45-45zm0 0" fill="#25d9f8"/><path d="m301 90c0 24.902344-20.097656 45-45 45v-90c24.902344 0 45 20.097656 45 45zm0 0" fill="#00c0f1"/><path d="m120 512c-66.164062 0-120-53.832031-120-120 0-26.214844 8.28125-51.054688 23.949219-71.9375 22.882812-30.503906 57.871093-48.0625 96.050781-48.0625 66.164062 0 120 53.832031 120 120 0 66.164062-53.832031 120-120 120zm0 0" fill="#145383"/><path d="m120 482c-49.628906 0-90-40.371094-90-90 0-48.851562 39.300781-90 90-90 49.628906 0 90 40.371094 90 90s-40.371094 90-90 90zm0 0" fill="#25d9f8"/><path d="m120 452c-33.089844 0-60-26.90625-60-60 0-32.613281 26.238281-60 60-60 33.089844 0 60 26.90625 60 60 0 33.089844-26.90625 60-60 60zm0 0" fill="#00c0f1"/><path d="m120 422c-16.542969 0-30-13.457031-30-30s13.457031-30 30-30 30 13.457031 30 30-13.457031 30-30 30zm0 0" fill="#e0f4ff"/><path d="m392 512c-66.164062 0-120-53.832031-120-120 0-66.164062 53.832031-120 120-120 38.128906 0 73.140625 17.519531 96.050781 48.046875v.015625c15.667969 20.882812 23.949219 45.722656 23.949219 71.9375 0 66.164062-53.832031 120-120 120zm0 0" fill="#0f4066"/><path d="m392 482c-49.628906 0-90-40.371094-90-90s40.371094-90 90-90c28.59375 0 54.859375 13.140625 72.054688 36.050781 11.734374 15.660157 17.945312 34.320313 17.945312 53.949219 0 49.628906-40.371094 90-90 90zm0 0" fill="#00c0f1"/><path d="m392 452c-33.089844 0-60-26.90625-60-60 0-33.089844 26.90625-60 60-60 33.691406 0 60 27.316406 60 60 0 33.089844-26.90625 60-60 60zm0 0" fill="#009ae4"/><path d="m392 422c-16.542969 0-30-13.457031-30-30s13.457031-30 30-30 30 13.457031 30 30-13.457031 30-30 30zm0 0" fill="#bbdcff"/><path d="m271 90c0 8.402344-6.597656 15-15 15s-15-6.597656-15-15 6.597656-15 15-15 15 6.597656 15 15zm0 0" fill="#1c78bf"/><path d="m256 105v-30c8.402344 0 15 6.597656 15 15s-6.597656 15-15 15zm0 0" fill="#145383"/></svg>