<svg height="512" viewBox="0 0 64 64" width="512" xmlns="http://www.w3.org/2000/svg"><g id="Workflow"><path d="m45 49v12h-26v-12a2.006 2.006 0 0 1 2-2h22a2.006 2.006 0 0 1 2 2z" fill="#57a4ff"/><path d="m45 49v12h-4v-12a2.006 2.006 0 0 0 -2-2h4a2.006 2.006 0 0 1 2 2z" fill="#2488ff"/><path d="m39 47-1.68 8.39a2 2 0 0 1 -1.96 1.61h-6.72a2 2 0 0 1 -1.96-1.61l-1.68-8.39 7 4z" fill="#ffeb99"/><path d="m39 47-1.68 8.39a2 2 0 0 1 -1.96 1.61h-4a2 2 0 0 0 1.96-1.61l1.16-5.81z" fill="#ffde55"/><rect fill="#57a4ff" height="16" rx="2" width="16" x="45" y="29"/><rect fill="#d9ccbc" height="16" rx="2" width="16" x="45" y="3"/><path d="m41 33v1a1 1 0 0 1 -1 1h-2v-3h2a1 1 0 0 1 1 1z" fill="#ffc477"/><path d="m41 28v1l-3 3v-3l-8-2-4 2v3l-3-3v-1a5.857 5.857 0 0 1 .81-3 5.985 5.985 0 0 1 5.19-3h6a5.985 5.985 0 0 1 5.19 3 5.857 5.857 0 0 1 .81 3z" fill="#c0ab91"/><path d="m39 47-7 4-7-4 4-3v-3.81a5.961 5.961 0 0 0 6 0v3.81z" fill="#ffdaaa"/><path d="m38 32v3a5.985 5.985 0 0 1 -3 5.19 5.961 5.961 0 0 1 -6 0 5.985 5.985 0 0 1 -3-5.19v-6l4-2 8 2z" fill="#ffdaaa"/><path d="m26 32v3h-2a1 1 0 0 1 -1-1v-1a1 1 0 0 1 1-1z" fill="#ffc477"/><rect fill="#ffeb99" height="16" rx="2" width="16" x="3" y="29"/><rect fill="#00eed1" height="16" rx="2" width="16" x="3" y="3"/><path d="m61 31v12a2.006 2.006 0 0 1 -2 2h-4a2.006 2.006 0 0 0 2-2v-12a2.006 2.006 0 0 0 -2-2h4a2.006 2.006 0 0 1 2 2z" fill="#2488ff"/><path d="m61 5v12a2.006 2.006 0 0 1 -2 2h-4a2.006 2.006 0 0 0 2-2v-12a2.006 2.006 0 0 0 -2-2h4a2.006 2.006 0 0 1 2 2z" fill="#c0ab91"/><path d="m19 31v12a2.006 2.006 0 0 1 -2 2h-4a2.006 2.006 0 0 0 2-2v-12a2.006 2.006 0 0 0 -2-2h4a2.006 2.006 0 0 1 2 2z" fill="#ffde55"/><path d="m19 5v12a2.006 2.006 0 0 1 -2 2h-4a2.006 2.006 0 0 0 2-2v-12a2.006 2.006 0 0 0 -2-2h4a2.006 2.006 0 0 1 2 2z" fill="#00ddc2"/><circle cx="11" cy="11" fill="#ffeb99" r="3"/><path d="m38 29v6a5.985 5.985 0 0 1 -3 5.19 5.857 5.857 0 0 1 -3 .81 6.531 6.531 0 0 1 -1-.08 5.79 5.79 0 0 0 2-.73 5.985 5.985 0 0 0 3-5.19v-6l-6.67-1.67.67-.33z" fill="#ffc477"/><path d="m39 47-7 4-1-.57 6-3.43-4-3v-3.08a5.79 5.79 0 0 0 2-.73v3.81z" fill="#ffc477"/><path d="m43 46h-3.667l-3.333-2.5v-2.764a7 7 0 0 0 2.92-4.736h1.08a2 2 0 0 0 2-2v-1a2 2 0 0 0 -1.624-1.962l1.331-1.331a1 1 0 0 0 .293-.707v-1a6.9 6.9 0 0 0 -.942-3.5 7.01 7.01 0 0 0 -6.058-3.5h-6a7 7 0 0 0 -6.052 3.491 6.908 6.908 0 0 0 -.948 3.509v1a1 1 0 0 0 .293.707l1.331 1.331a2 2 0 0 0 -1.624 1.962v1a2 2 0 0 0 2 2h1.08a7 7 0 0 0 2.92 4.736v2.764l-3.333 2.5h-3.667a3 3 0 0 0 -3 3v12a1 1 0 0 0 1 1h26a1 1 0 0 0 1-1v-12a3 3 0 0 0 -3-3zm-3-12h-1v-1h1zm-16-6a4.841 4.841 0 0 1 .677-2.5 5 5 0 0 1 4.323-2.5h6a5 5 0 0 1 4.329 2.509 4.831 4.831 0 0 1 .671 2.491v.586l-1 1v-.586a1 1 0 0 0 -.758-.97l-8-2a.99.99 0 0 0 -.689.075l-4 2a1 1 0 0 0 -.553.895v.586l-1-1zm0 5h1v1h-1zm3 2v-5.382l3.116-1.558 6.884 1.721v5.219a5 5 0 0 1 -10 0zm2.6 9.8a1 1 0 0 0 .4-.8v-2.3a6.927 6.927 0 0 0 4 0v2.3a1 1 0 0 0 .4.8l2.783 2.087-5.183 2.962-5.183-2.962zm7.989 4.158-1.248 6.242a1 1 0 0 1 -.981.8h-6.72a1 1 0 0 1 -.981-.8l-1.248-6.238 5.093 2.91a1 1 0 0 0 .992 0zm6.411 11.042h-24v-11a1 1 0 0 1 1-1h3.18l1.52 7.588a3.008 3.008 0 0 0 2.94 2.412h6.72a3.008 3.008 0 0 0 2.94-2.411l1.52-7.589h3.18a1 1 0 0 1 1 1z"/><path d="m59 2h-12a3 3 0 0 0 -3 3v12a3 3 0 0 0 3 3h12a3 3 0 0 0 3-3v-12a3 3 0 0 0 -3-3zm1 15a1 1 0 0 1 -1 1h-12a1 1 0 0 1 -1-1v-12a1 1 0 0 1 1-1h12a1 1 0 0 1 1 1z"/><path d="m51.906 37.68-3.306-2.48-1.2 1.6 4 3a1 1 0 0 0 1.307-.093l6-6-1.414-1.414z"/><path d="m5 20h12a3 3 0 0 0 3-3v-12a3 3 0 0 0 -3-3h-12a3 3 0 0 0 -3 3v12a3 3 0 0 0 3 3zm-1-15a1 1 0 0 1 1-1h12a1 1 0 0 1 1 1v12a1 1 0 0 1 -1 1h-12a1 1 0 0 1 -1-1z"/><path d="m20 43v-12a3 3 0 0 0 -3-3h-12a3 3 0 0 0 -3 3v12a3 3 0 0 0 3 3h12a3 3 0 0 0 3-3zm-2 0a1 1 0 0 1 -1 1h-12a1 1 0 0 1 -1-1v-12a1 1 0 0 1 1-1h12a1 1 0 0 1 1 1z"/><path d="m10 14.858v2.142h2v-2.142a3.991 3.991 0 0 0 2.858-2.858h2.142v-2h-2.142a3.991 3.991 0 0 0 -2.858-2.858v-2.142h-2v2.142a3.991 3.991 0 0 0 -2.858 2.858h-2.142v2h2.142a3.991 3.991 0 0 0 2.858 2.858zm1-5.858a2 2 0 1 1 -2 2 2 2 0 0 1 2-2z"/><path d="m36.293 14.293 1.414 1.414 4-4-.007-.007a.974.974 0 0 0 .006-1.408l-4-4-1.413 1.415 2.293 2.293h-16.586v2h16.586z"/><path d="m10.293 22.293-3 3 1.414 1.414 2.293-2.293 2.293 2.293 1.414-1.414-3-3a1 1 0 0 0 -1.414 0z"/><path d="m59 28h-12a3 3 0 0 0 -3 3v12a3 3 0 0 0 3 3h12a3 3 0 0 0 3-3v-12a3 3 0 0 0 -3-3zm1 15a1 1 0 0 1 -1 1h-12a1 1 0 0 1 -1-1v-12a1 1 0 0 1 1-1h12a1 1 0 0 1 1 1z"/><path d="m53.707 26.707 3-3-1.414-1.414-2.293 2.293-2.293-2.293-1.414 1.414 3 3a1 1 0 0 0 1.414 0z"/><path d="m48 6h10v2h-10z"/><path d="m48 10h10v2h-10z"/><path d="m48 14h10v2h-10z"/><path d="m10 36h2v2h-2z"/><path d="m14 36h2v2h-2z"/><path d="m6 36h2v2h-2z"/></g></svg>