<svg   id="Capa_1"   enable-background="new 0 0 512 512"   height="512"   viewBox="0 0 512 512"   width="512"   version="1.1"   xmlns="http://www.w3.org/2000/svg"   xmlns:svg="http://www.w3.org/2000/svg">  <defs     id="defs27" />  <g     id="g22">    <path       d="M 150.399,239.282 C 65.233,231.284 0,160.664 0,75 V 45 C 0,20.186 20.186,0 45,0 c 24.814,0 45,20.186 45,45 0,8.276 6.724,15 15,15 h 31 c 8.291,0 15,6.709 15,15 0,8.291 -6.709,15 -15,15 H 105 C 80.186,90 60,69.814 60,45 60,36.724 53.276,30 45,30 36.724,30 30,36.724 30,45 v 30 c 0,70.093 53.544,127.866 123.212,134.399 8.247,0.776 14.297,8.101 13.535,16.348 -0.776,8.221 -8.056,14.289 -16.348,13.535 z"       fill="#ffbe40"       id="path2" />    <path       d="m 346.253,225.747 c -0.762,-8.247 5.288,-15.571 13.535,-16.348 C 429.456,202.866 482,145.093 482,75 V 45 c 0,-8.276 -6.724,-15 -15,-15 -8.276,0 -15,6.724 -15,15 0,24.814 -20.186,45 -45,45 h -30 c -8.291,0 -15,-6.709 -15,-15 0,-8.291 6.709,-15 15,-15 h 30 c 8.276,0 15,-6.724 15,-15 0,-24.814 20.186,-45 45,-45 24.814,0 45,20.186 45,45 v 30 c 0,85.664 -64.233,156.284 -149.399,164.282 -8.291,0.754 -15.572,-5.313 -16.348,-13.535 z"       fill="#ff9f40"       id="path4" />    <path       d="M 377,0 H 256 136 c -8.291,0 -15,6.709 -15,15 v 150 c 0,57.349 36.46,107.944 90,126.841 V 407 h 45 45 V 291.841 C 354.54,272.945 392,222.349 392,165 V 15 C 392,6.709 385.291,0 377,0 Z"       fill="#ffdf40"       id="path6" />    <path       d="M 301,291.841 C 354.54,272.945 392,222.349 392,165 V 15 C 392,6.709 385.291,0 377,0 H 256 v 407 h 45 z"       fill="#ffbe40"       id="path8" />    <path       d="m 332.611,115.664 c -1.772,-5.435 -6.46,-9.39 -12.114,-10.21 l -35.273,-5.127 -15.776,-31.963 c -2.52,-5.127 -7.983,-7.69 -13.447,-7.69 -5.464,0 -10.928,2.563 -13.447,7.69 l -15.776,31.963 -35.273,5.127 c -5.654,0.82 -10.342,4.775 -12.114,10.21 -1.758,5.42 -0.293,11.382 3.794,15.366 l 25.532,24.888 -6.021,35.127 c -0.967,5.625 1.348,11.309 5.962,14.663 4.614,3.369 10.796,3.809 15.791,1.143 L 256,190.283 287.553,206.85 c 4.979,2.64 11.142,2.254 15.791,-1.143 4.614,-3.354 6.929,-9.038 5.962,-14.663 l -6.021,-35.127 25.532,-24.888 c 4.087,-3.983 5.552,-9.945 3.794,-15.365 z"       fill="#ffbe40"       id="path10" />    <path       d="m 303.344,205.708 c 4.614,-3.354 6.929,-9.038 5.962,-14.663 l -6.021,-35.127 25.532,-24.888 c 4.087,-3.984 5.552,-9.946 3.794,-15.366 -1.772,-5.435 -6.46,-9.39 -12.114,-10.21 l -35.273,-5.127 -15.776,-31.963 c -2.52,-5.127 -7.983,-7.69 -13.447,-7.69 v 129.609 l 31.553,16.567 c 4.977,2.641 11.141,2.255 15.79,-1.142 z"       fill="#ff9f40"       id="path12" />    <path       d="m 376,452 h -15 v -45 c 0,-8.291 -6.709,-15 -15,-15 h -90 -90 c -8.291,0 -15,6.709 -15,15 v 45 h -15 c -8.291,0 -15,6.709 -15,15 v 30 c 0,8.291 6.709,15 15,15 h 120 120 c 8.291,0 15,-6.709 15,-15 v -30 c 0,-8.291 -6.709,-15 -15,-15 z"       fill="#4d6699"       id="path14" />    <path       d="m 391,497 v -30 c 0,-8.291 -6.709,-15 -15,-15 h -15 v -45 c 0,-8.291 -6.709,-15 -15,-15 h -90 v 120 h 120 c 8.291,0 15,-6.709 15,-15 z"       fill="#404b80"       id="path16" />    <path       d="m 286,437 h -30 -30 c -8.291,0 -15,6.709 -15,15 0,8.291 6.709,15 15,15 h 30 30 c 8.291,0 15,-6.709 15,-15 0,-8.291 -6.709,-15 -15,-15 z"       fill="#404b80"       id="path18" />    <path       d="m 301,452 c 0,-8.291 -6.709,-15 -15,-15 h -30 v 30 h 30 c 8.291,0 15,-6.709 15,-15 z"       fill="#333366"       id="path20" />  </g></svg>